<?xml version="1.0" encoding="utf-8"?>
<!-- Generator: Adobe Illustrator 19.0.0, SVG Export Plug-In . SVG Version: 6.00 Build 0)  -->
<svg version="1.1" id="Calque_1" xmlns="http://www.w3.org/2000/svg" xmlns:xlink="http://www.w3.org/1999/xlink" x="0px" y="0px"
	 viewBox="-513 166 252 369" style="enable-background:new -513 166 252 369;" xml:space="preserve">
<style type="text/css">
	.st0{fill:none;stroke:#F3B93F;stroke-width:12;stroke-miterlimit:10;}
	.st1{fill:#C20A1C;}
</style>
<line id="XMLID_2_" class="st0" x1="-489.5" y1="329.7" x2="-503.2" y2="266.3"/>
<line id="XMLID_6_" class="st0" x1="-478.5" y1="329.7" x2="-485" y2="261.3"/>
<line id="XMLID_7_" class="st0" x1="-462" y1="336.9" x2="-476.5" y2="194.6"/>
<line id="XMLID_8_" class="st0" x1="-431.2" y1="372.6" x2="-441" y2="257.6"/>
<line id="XMLID_9_" class="st0" x1="-411.6" y1="380.5" x2="-403.4" y2="262.7"/>
<line id="XMLID_10_" class="st0" x1="-390.6" y1="379.4" x2="-374.7" y2="281.2"/>
<line id="XMLID_11_" class="st0" x1="-363.1" y1="378" x2="-343.5" y2="259.1"/>
<line id="XMLID_12_" class="st0" x1="-333.6" y1="364.1" x2="-305.5" y2="248.3"/>
<line id="XMLID_13_" class="st0" x1="-297" y1="331.2" x2="-286.5" y2="215.2"/>
<line id="XMLID_14_" class="st0" x1="-288.4" y1="336.4" x2="-267.6" y2="256"/>
<line id="XMLID_15_" class="st0" x1="-343.5" y1="374.5" x2="-316" y2="210.9"/>
<line id="XMLID_16_" class="st0" x1="-371" y1="381.2" x2="-351.3" y2="167.9"/>
<line id="XMLID_17_" class="st0" x1="-395.5" y1="381.6" x2="-383.8" y2="202.2"/>
<line id="XMLID_18_" class="st0" x1="-420.5" y1="376" x2="-417.5" y2="183.5"/>
<line id="XMLID_19_" class="st0" x1="-448.5" y1="355.5" x2="-462.2" y2="174.9"/>
<path id="XMLID_3_" class="st1" d="M-464.7,533.6c0,0-11.9-2.8-13.4-12.7s-30.1-199.3-30.1-199.3h31.7l19,13.3
	c41.8,29.1,97.5,28.2,138.4-2.2l14.9-11.1h34.7c0,0-30.3,189-32,199.3c-0.7,12.7-9.3,12.7-9.3,12.7H-464.7z"/>
</svg>
