<?xml version="1.0" encoding="utf-8"?>
<!-- Generator: Adobe Illustrator 19.0.0, SVG Export Plug-In . SVG Version: 6.00 Build 0)  -->
<svg version="1.1" id="Calque_1" xmlns="http://www.w3.org/2000/svg" xmlns:xlink="http://www.w3.org/1999/xlink" x="0px" y="0px"
	 viewBox="-557 201 164 300" style="enable-background:new -557 201 164 300;" xml:space="preserve">
<style type="text/css">
	.st0{fill:#CE2527;}
	.st1{fill:#B6B5B6;}
	.st2{fill:#8E8E8E;}
</style>
<path id="XMLID_19_" class="st0" d="M-547.9,246.3c37.8,27.8,111,28,145,0.8c8.2,8.3,9.6,18.8,8.9,29.6
	c-2.6,44.1-5.4,88.1-8.3,132.2c-0.7,10.8-1.8,21.6-3.1,32.3c-4,34.6-19.4,51.7-53.8,57.9c-24.9,4.5-48.9,1.7-70-13.9
	c-11.8-8.7-19.2-20.1-19.8-35.5c-2.2-57.7-5-115.5-6.5-173.2C-555.7,266.6-550.7,256.7-547.9,246.3z"/>
<path id="XMLID_2_" class="st1" d="M-398.9,240.1c0,17.3-34.2,31.4-76.3,31.4s-76.3-14.1-76.3-31.4s34.2-37.3,76.3-37.3
	S-398.9,222.7-398.9,240.1z"/>
<path id="XMLID_3_" class="st2" d="M-476.3,219.6l-25.5,7.8c-6.1,1.9-9.6,8.4-7.7,14.6l1.7,5.7c1.9,6.1,8.4,9.6,14.6,7.7l25.5-7.8
	c6.1-1.9,9.6-8.4,7.7-14.6l-1.7-5.7C-463.6,221.2-470.2,217.7-476.3,219.6z"/>
</svg>
