<?xml version="1.0" encoding="utf-8"?>
<!-- Generator: Adobe Illustrator 19.1.1, SVG Export Plug-In . SVG Version: 6.00 Build 0)  -->
<svg version="1.1" id="true" xmlns="http://www.w3.org/2000/svg" xmlns:xlink="http://www.w3.org/1999/xlink" x="0px" y="0px"
	 viewBox="0 0 300 300" style="enable-background:new 0 0 300 300;" xml:space="preserve">
<style type="text/css">
	.st0{fill:none;stroke:#2B2A2A;stroke-width:2;stroke-miterlimit:10;}
	.st1{fill:#2B2A2A;}
	.st2{fill:#FFFFFF;}
</style>
<circle id="XMLID_1_" class="st0" cx="152.6" cy="150" r="83.9"/>
<path class="st1" d="M187,162.7h-74.3c-12.1,0-21.9,9.8-21.9,21.9v22.3c2.1,1.7,3.8,3.9,5.8,5.7c1.5,1.4,2.9,2.8,4.5,4.1
	c0.5,0,1.1,0.1,1.5,0.4c1,0.6,2,1.4,2.7,2.3c0.3,0.1,0.6,0.2,1,0.3c1,0.3,1.7,1,2,1.8c0.2,0.1,0.4,0.2,0.7,0.3
	c2.1,1.1,3.8,2.7,5.9,3.8c1.8,0.9,3.7,1.6,5.5,2.4c1.8,0.4,3.6,1.1,5.4,1.7c1.8,0.6,3.8,1.6,5.8,1.8c0.5,0,1,0.2,1.4,0.4
	c1.5,0.2,3,0.5,4.5,0.8c0.2,0,0.4,0,0.5,0c0.8,0,1.4,0.2,1.9,0.6c3.9-0.2,8,0.4,11.9,0.5c3.8,0,7.5-0.2,11.2-0.4
	c0.4-0.1,0.8-0.2,1.2-0.2c0.3,0,0.6,0,0.8,0.1c0.2-0.1,0.4-0.2,0.7-0.2c1.4-0.2,2.9-0.3,4.3-0.3c0.5-0.3,1.1-0.5,1.8-0.5
	c0,0,0,0,0.1,0c0.5-0.5,1.2-0.7,2.1-0.7c0.3,0,0.5,0,0.8,0.1c0.5-0.4,1.2-0.7,2-0.7c0.1,0,0.2,0,0.3,0c0.2-0.1,0.5-0.2,0.7-0.2
	c0.5-0.5,1.2-0.8,2.1-0.8c0,0,0.1,0,0.1,0c0.4-0.5,1-0.8,1.7-1c0.4-0.2,0.9-0.4,1.5-0.4c2.3-1.2,4.8-2.2,7.1-3.3
	c0.1,0,0.1-0.1,0.2-0.1c0.4-0.3,0.9-0.5,1.5-0.6c0.4-0.6,1.1-1,2-1.1c0.3-0.2,0.7-0.4,1.2-0.4c0.8-0.6,1.6-1.3,2.6-1.8
	c0.1,0,0.2-0.1,0.2-0.1c0.4-0.6,1-1.1,1.8-1.3c0.4-0.8,1.2-1.4,2.2-1.5c0.9-0.8,1.9-1.5,2.9-2.2c0.5-0.4,0.9-0.9,1.5-1.2
	c0.5-0.5,0.9-1,1.5-1.4c0.2-0.5,0.6-1,1-1.4v-27.4C208.9,172.5,199.1,162.7,187,162.7z"/>
<path class="st2" d="M186,159.1c0,12.6-14.3,18.3-36,18.3s-37.5-5.6-37.5-18.3c0-12.6,15.9-22.9,37.5-22.9S186,146.4,186,159.1z"/>
<path class="st1" d="M191.6,123.6c0,23.1-18.7,44.4-41.8,44.4S108,146.6,108,123.6s18.7-41.8,41.8-41.8S191.6,100.5,191.6,123.6z"/>
</svg>
