<?xml version="1.0" encoding="utf-8"?>
<!-- Generator: Adobe Illustrator 19.0.0, SVG Export Plug-In . SVG Version: 6.00 Build 0)  -->
<svg version="1.1" id="Calque_1" xmlns="http://www.w3.org/2000/svg" xmlns:xlink="http://www.w3.org/1999/xlink" x="0px" y="0px"
	 viewBox="155 314 251 153.8" style="enable-background:new 155 314 251 153.8;" xml:space="preserve">
<style type="text/css">
	.st0{fill:#E5B24C;}
	.st1{fill:#BC7238;}
	.st2{fill:#C6914B;}
</style>
<polygon id="XMLID_7_" class="st0" points="156.6,392.1 277.3,446.2 405.5,362.8 287.3,315.5 "/>
<path id="XMLID_81_" class="st1" d="M386,363.5c-2.1,1.7-3.5,3-5,4c-4.8,3.1-9.7,5.9-14.4,9.1c-2.4,1.6-4.8,1.9-7.4,1
	c-7.1-2.5-14.2-5-21.3-7.7c-1.2-0.4-2.2-1.3-3.6-2.2c0.7-0.9,1.2-1.6,1.8-2.1c6.1-4.6,12.1-9.3,18.3-13.7c1-0.7,3.1-0.8,4.4-0.3
	c7.1,2.7,14.2,5.5,21.2,8.4C381.9,360.8,383.6,362,386,363.5z"/>
<path id="XMLID_80_" class="st1" d="M233.4,356.2c3.4-2.1,6.4-3.9,9.4-5.8c3-1.8,6-3.6,9-5.4c1.6-1,3.1-1.4,5-0.4
	c7,3.7,14.1,7.2,21.1,10.9c3.3,1.7,3.4,3.3,0.4,5.3c-4.9,3.3-9.8,6.5-14.7,9.8c-2.5,1.6-5,1.4-7.5-0.2c-6.7-4.1-13.5-8.1-20.2-12.2
	C235.2,357.7,234.5,357.1,233.4,356.2z"/>
<path id="XMLID_79_" class="st1" d="M300,355.5c2.4-2,4.3-3.9,6.6-5.4c4.3-2.9,8.5-6,13.3-8c2.7-1.2,6.6-1,9.5-0.1
	c5.2,1.5,10.1,3.9,15.2,5.9c0.9,0.4,1.7,1.2,2.9,2.1c-1.6,1.3-2.9,2.3-4.2,3.3c-4.6,3.3-9.2,6.6-14,9.6c-1.5,1-3.9,1.6-5.5,1.1
	c-7.4-2.3-14.7-5.1-22-7.7C301.3,356.3,300.9,356,300,355.5z"/>
<path id="XMLID_78_" class="st1" d="M294.7,423.6c-6.6,4.3-12.7,8.4-18.9,12.3c-1,0.6-2.7,0.8-3.7,0.3c-8.4-3.4-16.8-7.1-25.9-11
	c3.7-2.3,6.6-4.2,9.6-6.1c2.7-1.7,5.4-3.5,8.3-4.7c1.7-0.7,4-1.1,5.7-0.6c7.7,2.6,15.3,5.5,22.9,8.3
	C293.2,422.4,293.6,422.8,294.7,423.6z"/>
<path id="XMLID_77_" class="st1" d="M307.4,388.8c6-4.6,11.5-9.5,17.7-13.1c3.4-2,8-1.8,12-0.1c5.9,2.6,11.8,5.3,18.2,8.1
	c-2.8,1.8-5.3,3.4-7.7,5c-3.4,2.2-6.8,4.5-10.3,6.5c-1.5,0.8-3.5,1.6-5,1.2c-7.7-2-15.3-4.3-22.9-6.6
	C308.7,389.8,308.3,389.4,307.4,388.8z"/>
<path id="XMLID_76_" class="st1" d="M318.2,371.1c-7.1,4.6-13.4,8.7-19.8,12.6c-1.1,0.7-3,0.8-4.3,0.4c-7.3-2.3-14.6-4.8-21.8-7.2
	c-0.3-0.1-0.6-0.4-1.5-1c6.7-4.4,13.1-8.6,19.3-12.6c0.1-1.3,0.1-2.3,0.2-3.3c1,0.2,2,0.4,2.9,0.7c7.1,2.9,14.1,5.8,21.1,8.7
	C315.3,369.7,316.2,370.2,318.2,371.1z"/>
<path id="XMLID_75_" class="st1" d="M203.8,374.2c3.2-2.1,6.2-4,9.2-5.9c2.5-1.5,5.2-2.6,7.6-4.2c2.6-1.8,5.2-1.5,7.6-0.2
	c7,3.8,13.9,7.7,20.9,11.5c0.2,0.1,0.2,0.3,0.6,0.8c-4.8,2.5-9.5,4.9-14.2,7.4c-1.3,0.7-2.5,1.7-3.9,2c-1.6,0.4-3.5,0.6-4.9,0
	c-7.2-3.2-14.2-6.8-21.3-10.2C204.9,375.2,204.6,374.8,203.8,374.2z"/>
<path id="XMLID_74_" class="st1" d="M173.3,392.3c6.4-3.5,12.7-7.3,19.4-10.3c2.2-1,5.5-0.3,8,0.6c6.4,2.2,12.5,5.3,18.2,10
	c-5.5,3-10.6,5.4-15.4,8.4c-4.2,2.6-8,2.1-12.1,0.2c-5.9-2.7-12-5.2-18-7.8C173.4,393,173.3,392.7,173.3,392.3z"/>
<path id="XMLID_73_" class="st1" d="M277.3,406.9c2.3-1.3,4.3-2.2,6.2-3.4c3.5-2.2,7.1-4.2,10.2-6.8c3.6-3,7.4-2,10.9-0.9
	c5.7,1.7,11.3,4,16.9,6c0.9,0.3,1.8,0.7,3.2,1.3c-0.9,0.8-1.5,1.4-2.2,1.9c-4.9,3.3-9.6,6.7-14.7,9.7c-1.8,1-4.5,1.6-6.4,1
	c-7.6-2.3-15.1-5.1-22.6-7.7C278.5,407.8,278.2,407.5,277.3,406.9z"/>
<path id="XMLID_72_" class="st1" d="M208.8,408.1c3.5-1.8,6.8-3.5,10.1-5.2c1.6-0.8,3.2-1.6,4.6-2.7c3-2.5,6.3-2.8,9.8-1.4
	c7.5,3,15,6.1,22.5,9.2c0,0.3,0,0.7-0.1,1c-2,1.2-4,2.4-6,3.5c-3.7,2.1-7.4,4.3-11.3,6.2c-1.5,0.7-3.7,1.2-5.1,0.6
	c-7.9-3.2-15.7-6.7-23.6-10.1C209.5,409,209.4,408.7,208.8,408.1z"/>
<path id="XMLID_71_" class="st1" d="M286.2,391.9c-5.7,3.3-11.4,6.8-17.3,9.9c-1.3,0.7-3.5,0.7-4.9,0.1c-7.9-3.2-15.8-6.7-23.6-10.1
	c-0.3-0.1-0.5-0.4-1.1-0.9c4.7-2.5,9.1-4.6,13.3-7.2c4.9-3,9.5-2.5,14.6-0.3c4.7,2.1,9.7,3.5,14.6,5.2c1.5,0.5,2.8,1.4,4.2,2.1
	C286,391.2,286.1,391.5,286.2,391.9z"/>
<path id="XMLID_70_" class="st1" d="M308.4,338c-5.8,4.1-11.6,8.3-17.5,12.3c-0.9,0.6-2.9,0.6-3.9,0.1c-7-3.4-13.9-6.9-20.8-10.5
	c-0.3-0.2-0.5-0.5-1.1-1.2c3-1.7,5.8-3.4,8.6-5c1.6-0.9,3.3-1.5,4.7-2.5c3.8-2.7,7.6-3.3,12-1.4c5.9,2.5,12,4.8,18,7.1
	C308.4,337.3,308.4,337.7,308.4,338z"/>
<polyline id="XMLID_8_" class="st2" points="277.4,466.8 158,414 157,414 157,392 158,392 277.4,445.8 "/>
<polyline id="XMLID_9_" class="st2" points="405,384 405,363 405.5,362.8 277.3,446.2 277,467 405.5,384.3 "/>
</svg>
