<?xml version="1.0" encoding="utf-8"?>
<!-- Generator: Adobe Illustrator 19.0.0, SVG Export Plug-In . SVG Version: 6.00 Build 0)  -->
<svg version="1.1" id="Calque_1" xmlns="http://www.w3.org/2000/svg" xmlns:xlink="http://www.w3.org/1999/xlink" x="0px" y="0px"
	 viewBox="-400 293 123 112" style="enable-background:new -400 293 123 112;" xml:space="preserve">
<style type="text/css">
	.st0{display:none;}
	.st1{display:inline;fill:none;stroke:#000000;stroke-miterlimit:10;}
	.st2{fill:#D8A684;stroke:#2B2A2A;stroke-miterlimit:10;}
	.st3{fill:#CC9669;stroke:#2B2A2A;stroke-miterlimit:10;}
	.st4{stroke:#000000;stroke-width:0.25;stroke-miterlimit:10;}
</style>
<g id="Calque_1_1_" class="st0">
	<line class="st1" x1="-1116.2" y1="674" x2="-1220.9" y2="642"/>
	<line class="st1" x1="-1106.6" y1="650.9" x2="-1116.2" y2="674"/>
	<line class="st1" x1="-1144.6" y1="842.9" x2="-1139.1" y2="767.4"/>
	<line class="st1" x1="-1099.1" y1="677.4" x2="-1139.1" y2="767.4"/>
	<line class="st1" x1="-1099.1" y1="677.4" x2="-1106.1" y2="662.4"/>
	<line class="st1" x1="-1106.1" y1="662.3" x2="-1114.1" y2="681.3"/>
	<line class="st1" x1="-1114.1" y1="681.3" x2="-1203.2" y2="653.3"/>
	<line class="st1" x1="-1106.6" y1="650.9" x2="-1211.8" y2="621.1"/>
	<line class="st1" x1="-1220.9" y1="642" x2="-1211.8" y2="621.1"/>
	<line class="st1" x1="-1095.6" y1="803.1" x2="-1089.4" y2="686.9"/>
	<line class="st1" x1="-1106.6" y1="650.9" x2="-1089.4" y2="686.9"/>
	<line class="st1" x1="-1144.6" y1="842.9" x2="-1095.6" y2="803.1"/>
	<line class="st1" x1="-1228.4" y1="786.6" x2="-1144.6" y2="842.9"/>
	<line class="st1" x1="-1228.6" y1="722.4" x2="-1228.4" y2="786.6"/>
	<line class="st1" x1="-1201.2" y1="648" x2="-1228.6" y2="722.4"/>
</g>
<g id="Coter">
	<polygon class="st2" points="-334,311.8 -336.5,308.4 -342.4,315.4 -333.2,345.7 -344.2,395.7 -361.1,370.6 -348.8,316.2 
		-334.9,302.6 	"/>
</g>
<g id="Devant">
	<polygon class="st2" points="-333.4,314.5 -333.8,312.1 -336.6,308.5 -342.4,315.4 -333.2,345.7 -344.2,395.7 -300.2,382.2 
		-289.3,346.6 -296,314.5 	"/>
</g>
<g id="Calque_5">
</g>
<g id="Dessus">
	<polygon class="st3" points="-282.5,303.7 -281.3,314.5 -333.6,314.5 -334.7,302.6 	"/>
</g>
<g id="perspec" class="st0">
	<path class="st1" d="M-1120.2,741"/>
	<path class="st1" d="M-1224.9,709"/>
</g>
<polygon class="st4" points="-392.6,332 -359.2,332 -359.2,329 "/>
<polygon class="st4" points="-394.6,340.1 -361.2,340.1 -361.2,337.1 "/>
<polygon class="st4" points="-396.6,348.1 -363.2,348.1 -363.2,345.1 "/>
<polygon class="st4" points="-398.6,356.1 -365.2,356.1 -365.2,353.1 "/>
</svg>
