<?xml version="1.0" encoding="utf-8"?>
<!-- Generator: Adobe Illustrator 19.0.0, SVG Export Plug-In . SVG Version: 6.00 Build 0)  -->
<svg version="1.1" id="Calque_1" xmlns="http://www.w3.org/2000/svg" xmlns:xlink="http://www.w3.org/1999/xlink" x="0px" y="0px"
	 viewBox="-426 323 174 45" style="enable-background:new -426 323 174 45;" xml:space="preserve">
<style type="text/css">
	.st0{display:none;}
	.st1{display:inline;fill:none;stroke:#000000;stroke-miterlimit:10;}
	.st2{fill:none;stroke:#2B2A2A;stroke-miterlimit:10;}
	.st3{stroke:#000000;stroke-width:0.25;stroke-miterlimit:10;}
	.st4{font-family:'Lato-Regular';}
	.st5{font-size:25.3085px;}
</style>
<g id="Calque_1_1_" class="st0">
	<line class="st1" x1="-1445.2" y1="805" x2="-1549.9" y2="773"/>
	<line class="st1" x1="-1435.6" y1="781.9" x2="-1445.2" y2="805"/>
	<line class="st1" x1="-1473.6" y1="973.9" x2="-1468.1" y2="898.4"/>
	<line class="st1" x1="-1428.1" y1="808.4" x2="-1468.1" y2="898.4"/>
	<line class="st1" x1="-1428.1" y1="808.4" x2="-1435.1" y2="793.4"/>
	<line class="st1" x1="-1435.1" y1="793.3" x2="-1443.1" y2="812.3"/>
	<line class="st1" x1="-1443.1" y1="812.3" x2="-1532.2" y2="784.3"/>
	<line class="st1" x1="-1435.6" y1="781.9" x2="-1540.8" y2="752.1"/>
	<line class="st1" x1="-1549.9" y1="773" x2="-1540.8" y2="752.1"/>
	<line class="st1" x1="-1424.6" y1="934.1" x2="-1418.4" y2="817.9"/>
	<line class="st1" x1="-1435.6" y1="781.9" x2="-1418.4" y2="817.9"/>
	<line class="st1" x1="-1473.6" y1="973.9" x2="-1424.6" y2="934.1"/>
	<line class="st1" x1="-1557.4" y1="917.6" x2="-1473.6" y2="973.9"/>
	<line class="st1" x1="-1557.6" y1="853.4" x2="-1557.4" y2="917.6"/>
	<line class="st1" x1="-1530.2" y1="779" x2="-1557.6" y2="853.4"/>
</g>
<g id="True">
	<g id="Coter">
		<polygon class="st2" points="-399.4,331.3 -400.3,330.1 -402.4,332.6 -399.1,343.3 -403,360.9 -409,352 -404.6,332.9 
			-399.7,328.1 		"/>
	</g>
	<g id="Devant">
		<polygon class="st2" points="-399.2,332.3 -399.4,331.4 -400.3,330.2 -402.4,332.6 -399.1,343.3 -403,360.9 -387.5,356.1 
			-383.7,343.6 -386,332.3 		"/>
	</g>
	<g id="Calque_5">
	</g>
	<g id="Dessus">
		<polygon class="st2" points="-381.3,328.5 -380.9,332.3 -399.3,332.3 -399.7,328.1 		"/>
	</g>
</g>
<g id="perspec" class="st0">
	<path class="st1" d="M-1449.2,872"/>
	<path class="st1" d="M-1553.9,840"/>
</g>
<polygon class="st3" points="-420.1,338.4 -408.3,338.4 -408.3,337.4 "/>
<polygon class="st3" points="-420.8,341.3 -409,341.3 -409,340.2 "/>
<polygon class="st3" points="-421.5,344.1 -409.7,344.1 -409.7,343 "/>
<polygon class="st3" points="-422.2,346.9 -410.4,346.9 -410.4,345.9 "/>
<text transform="matrix(1 0 0 1 -371.0005 352.0372)" class="st4 st5">Fast’Cafet</text>
</svg>
