<?xml version="1.0" encoding="utf-8"?>
<!-- Generator: Adobe Illustrator 19.0.0, SVG Export Plug-In . SVG Version: 6.00 Build 0)  -->
<svg version="1.1" id="Calque_1" xmlns="http://www.w3.org/2000/svg" xmlns:xlink="http://www.w3.org/1999/xlink" x="0px" y="0px"
	 viewBox="158 338 424 145" style="enable-background:new 158 338 424 145;" xml:space="preserve">
<style type="text/css">
	.st0{fill:#AD5B36;}
	.st1{fill:#FDD99F;}
	.st2{fill:#E6B368;}
	.st3{fill:none;stroke:#000000;stroke-width:0.5;stroke-miterlimit:10;}
</style>
<ellipse id="XMLID_1_" class="st0" cx="371.1" cy="462.6" rx="195.9" ry="14.9"/>
<path id="XMLID_5_" class="st1" d="M582,460l-0.3-1.3c-1.7-6.7-6.6-21.4-22.3-31.8c-10.2-6.8-21.1-9.3-29.5-11.2
	c-12-2.7-22.5-3.2-29.8-3.1L371.3,412l-129.4,0.6c-7.3-0.1-17.8,0.4-29.9,3.1c-8.4,1.9-19.4,4.4-29.6,11.2
	c-15.7,10.4-20.7,25.2-22.4,31.9l0,1.2h388H582z"/>
<path id="XMLID_18_" class="st2" d="M166.6,465.5c3.4,3,8.5,6,16,8.7c10.2,3.7,21.2,4.9,29.6,5.9c12.1,1.5,22.6,1.7,29.9,1.6
	l129.4,0.3l128.8-0.3c7.3,0.1,17.7-0.2,29.8-1.7c8.4-1,19.3-1.9,29.5-5.6c7.9-2.8,13-5.8,16.4-8.9H166.6z"/>
<line id="XMLID_9_" class="st3" x1="246" y1="412.5" x2="191.3" y2="441.1"/>
<line id="XMLID_12_" class="st3" x1="301" y1="412.5" x2="246.3" y2="441.1"/>
<line id="XMLID_13_" class="st3" x1="359" y1="411.7" x2="304.3" y2="440.3"/>
<line id="XMLID_14_" class="st3" x1="412" y1="412.5" x2="357.3" y2="441.1"/>
<line id="XMLID_15_" class="st3" x1="467" y1="412.5" x2="412.3" y2="441.1"/>
<line id="XMLID_16_" class="st3" x1="520" y1="414.1" x2="465.3" y2="442.8"/>
<line id="XMLID_17_" class="st3" x1="553.7" y1="423.4" x2="518.3" y2="441.9"/>
<g id="XMLID_2_">
	<g id="XMLID_29_">
		<path id="XMLID_4_" d="M295.5,392.5c-1.5-5.4-0.4-9,3.8-12.6c5.1-4.4,10.8-8.9,14.2-14.8c4.1-7.1,3.4-17.3,1.3-24.9
			c0.4,1.5-0.4,3.5,0,5c1.9,6.6,1.3,11.7-2.8,17.2c-3.9,5.2-9,9-13.7,13.4c-5.5,5.2-4.7,15-2.8,21.7
			C295.1,396,296,394.1,295.5,392.5L295.5,392.5z"/>
	</g>
</g>
<g id="XMLID_3_">
	<g id="XMLID_34_">
		<path id="XMLID_7_" d="M350.5,392.5c-1.5-5.4-0.4-9,3.8-12.6c5.1-4.4,10.8-8.9,14.2-14.8c4.1-7.1,3.4-17.3,1.3-24.9
			c0.4,1.5-0.4,3.5,0,5c1.9,6.6,1.3,11.7-2.8,17.2c-3.9,5.2-9,9-13.7,13.4c-5.5,5.2-4.7,15-2.8,21.7
			C350.1,396,351,394.1,350.5,392.5L350.5,392.5z"/>
	</g>
</g>
<g id="XMLID_6_">
	<g id="XMLID_39_">
		<path id="XMLID_10_" d="M403.5,392.5c-1.5-5.4-0.4-9,3.8-12.6c5.1-4.4,10.8-8.9,14.2-14.8c4.1-7.1,3.4-17.3,1.3-24.9
			c0.4,1.5-0.4,3.5,0,5c1.9,6.6,1.3,11.7-2.8,17.2c-3.9,5.2-9,9-13.7,13.4c-5.5,5.2-4.7,15-2.8,21.7
			C403.1,396,404,394.1,403.5,392.5L403.5,392.5z"/>
	</g>
</g>
<g id="XMLID_8_">
	<g id="XMLID_44_">
		<path id="XMLID_19_" d="M458.5,395.5c-1.5-5.4-0.4-9,3.8-12.6c5.1-4.4,10.8-8.9,14.2-14.8c4.1-7.1,3.4-17.3,1.3-24.9
			c0.4,1.5-0.4,3.5,0,5c1.9,6.6,1.3,11.7-2.8,17.2c-3.9,5.2-9,9-13.7,13.4c-5.5,5.2-4.7,15-2.8,21.7
			C458.1,399,459,397.1,458.5,395.5L458.5,395.5z"/>
	</g>
</g>
</svg>
