<?xml version="1.0" encoding="utf-8"?>
<!-- Generator: Adobe Illustrator 19.0.0, SVG Export Plug-In . SVG Version: 6.00 Build 0)  -->
<svg version="1.1" id="Calque_1" xmlns="http://www.w3.org/2000/svg" xmlns:xlink="http://www.w3.org/1999/xlink" x="0px" y="0px"
	 viewBox="38 222 550 305" style="enable-background:new 38 222 550 305;" xml:space="preserve">
<style type="text/css">
	.st0{fill:#CECECE;}
	.st1{fill:#F2F2F2;}
	.st2{fill:#759F33;}
	.st3{fill:#1B2410;}
	.st4{fill:#CD3824;}
	.st5{fill:#E5E1DD;}
</style>
<g id="Assiette">
	<ellipse id="XMLID_1_" class="st0" cx="315" cy="394" rx="270" ry="128"/>
	<ellipse id="XMLID_5_" class="st1" cx="317.7" cy="386.8" rx="225.3" ry="106.8"/>
</g>
<g id="XMLID_2_">
	<path id="XMLID_513_" class="st2" d="M457.5,469.1h-0.7h-0.7c-5.2,0.2-10.4,0.3-15.5,0.5c-8.9,0.3-17.8,0.6-26.8,0.8
		c3.9-5,7.7-10,11.6-14.9c-7.6,1.9-14.8,4.7-21.7,8.1c-2.3,1.1-5.3,3.9-0.3,6.1c-0.2,2.4-0.5,4.8-0.7,7.1c-5.3,0-10.6,0-15.9,0
		c-2.7-0.6-5.8-2.2-8.1-1.5c-10.7,3.3-21.9-1.6-32.4,2.3c-0.5,0.2-1.5-1.3-2.3-2c0.8-0.7,1.4-1.8,2.3-1.9c5.1-1.1,11-4.1,15.2-2.5
		c6.2,2.4,15.7,3.3,21.5-1.7c-5-1.2-11.4-1.8-4.4-8.7c0.7-0.7,0.7-2.5,0.4-3.7c-0.9-4.2,1-5.9,4.8-7.9c7.9-4.2,11.5-11.7,13.4-20.3
		c0.8-3.8,3.2-7.2,4.8-10.5c0,0-1.4-1.5-2.1-3.3c-2.4-5.4-2-4.5-6.6-3c-7.7,2.5-7.7,6.4-5.1,13c1.4,3.5,5.3,10.5-5.6,8.7
		c-7.4-1.2-10.1,4-8.5,11.9c0.3,1.3,0.4,2.5,0.6,3.8c2.1,13.2,2.1,13.2-11.4,11.6c0.4-2.8,0.9-5.7,1.4-9.3
		c-6.1,2.4-14.5,0.7-11.8,10.9c-1.4,1.9-3.3,5.7-4.1,5.4c-6.7-1.9-5,3.5-6.1,6.5c-8.1,0.7-7.9,0.7-8.8-6.5c-0.2-1.3-2.1-3.1-3.4-3.4
		c-3.6-0.6-7.3-0.1-10.9-0.8c-2.5-0.5-4.7-2.3-7-3.6c4.7-5.2,9.6-10.4,14.1-15.7c0.8-0.9,0.4-2.7,0.6-4.1c-1.4,0.2-3-0.1-4.1,0.6
		c-7.4,4.6-14.9,9.1-21.9,14.3c-1.8,1.3-1.9,5-2.8,7.6c-3.5,3.3-7.1,6.7-10.7,9.9c-0.2,0.2-1.2-0.4-1.8-0.6
		c-7.4-2.8-8.9-9.1-3.9-15.6c2-2.6,3.8-5.2,5.8-7.8c1.2-0.9,3.3-1.6,3.5-2.7c1.5-9.1,7.6-14.8,14.3-20.1c0.8-1.6,1.5-3.1,2.3-4.7
		l0,0c4.9-4.8,6.9-11.1,4.4-17.1c-2.6-6.3,2.3-7.4,5.1-9.8c0.6-0.5,3.5,1.7,5.4,2.7c0.5,0.5,1.1,1,1.6,1.5c0.5,0.6,0.9,1.1,1.4,1.7
		c5.8,5.9,6.1,9.6,1,15.7c-1.6,1.9-3.8,3.3-5.4,5.2c-3.4,3.9-2.9,7.3,1.5,10.3c4.1,2.9,7.6,6.5,11.8,9.2c3.3,2.1,7.2,3.4,11,4.5
		c0.9,0.3,2.4-1.3,3.7-2.1c-1.1-0.6-2.3-1.2-3.4-1.9c-2.5-1.5-5.1-2.9-7.3-4.7c-2.2-1.7-4.2-3.8-6.1-5.9c-1.8-2-3.3-4.3-4.9-6.5
		c8.4-5.6,5.2-14.8,7.1-22.4c1.1-0.4,2.2-0.9,3.3-1.3c-1.4,0-2.9,0.1-4.3,0.1c-2.2-0.4-4.5-0.8-6.7-1.2c-0.5-0.5-1-1-1.5-1.5
		s-1.1-1-1.6-1.4c-0.2-2.3-0.5-4.6-0.7-6.9c-2.3,0.5-5.6,0.1-6.8,1.5c-7.6,8.8-16.8,6.8-26.1,4.6c3.3-1.1,6.6-2.1,10.4-3.4
		c-12.9-8,4.9-5.9,2-10.2c-8.7-0.2-8.6-0.2-5.4-9.3c0.2-0.7,0-1.5,0-2.3c0.2-0.2,0.5-0.4,0.7-0.6c-0.2,0-0.4,0-0.4,0.1
		c-0.1,0.2-0.1,0.4-0.2,0.6c-4,3.2-7.9,6.4-11.9,9.6c-0.1-1.3-0.7-2.7-0.4-3.7c2.2-6.5,1.4-10.2-6.7-7.8c-0.2,0-0.7-1.1-1.1-1.7
		c3.3-4.7,4.4-9.6,1.5-14.9l-0.1,0.1c1.7-0.9,3.3-2.6,5.1-2.7c6.8-0.4,1-3.2,1.1-4.8c8.6,3.8,17.3,7.5,25.8,11.5
		c0.4,0.2-0.5,3.2-0.9,5.7c11.3,2.7,23.5,5.9,35.8,8.5c2.1,0.4,5.8-0.5,6.6-2c1-2,6.3-6.7-1.6-7.3c0.1-0.6,0.3-1.2,0.2-1.9
		c-0.1-2.1,0.5-4.7-0.6-6.1c-3.9-5.1-9.1-8-15.8-7.2l0,0c-6.8-2.2-13.5-5.4-20.4-6.2c-6.6-0.8-13.5,3.4-19.7-3.1
		c-2-2.2-7-3.9-9.2,1.7l0.1-0.1c-3.3-1.2-6.6-2.3-9.8-3.8c-1.7-0.8-4.6-2.5-4.5-3.5c0.3-2.5,1.6-5.1,3.3-7c1.1-1.3,3.6-1.5,5.5-2.1
		c11,1.7,22,3.3,34.6,5.3c-9.1-7-16-12.4-23-17.8c-5.1-10.4-4.5-11.9,5.1-15.1c-10.1-1.6-11.5-0.5-11.9,9.7
		c-0.3,7.7-2.1,14-10.9,16.5c-5.1,1.4-9,5.1-7.4,10.7c-2.3-0.6-4.8-1.3-7.2-1.9l0,0c2.7-5.8,5.6-11.6,8.2-17.5
		c1.1-2.5,2.9-5.5,2.4-7.7c-2.4-10.4,2.8-15.2,11.7-17.8c0.5-0.1,1-0.3,1.4-0.5c4.4-1.4,8.9-2.8,13.3-4.3l-0.2-0.1
		c3.6-0.1,7.2-0.1,10.8-0.2c1.5,0.2,3,0.4,4.5,0.5c4.8-1.8,9.6-3.5,14.4-5.3c0.4-0.4,0.8-0.9,1.2-1.3l-0.1,0.1
		c7.7-3.5,9.5-12.3,4.5-23.3c-0.1-2.7-0.2-5.5-0.3-8.2c2.1,0.2,4.2,0.4,6.3,0.8c1.7,0.3,3.3,0.7,4.9,1c9.8-0.3,7.9,6.8,7.9,12.7
		c0,3.3,0,6.7,0,10c0.7,0.1,1.4,0.1,2.1,0.2c3.7-8.5,0.6-19.8,10-26c4.2,2.7,8.4,5.4,12.6,8.1h-0.3c1.4,0.1,2.7,0.3,4.1,0.4
		c6.1,0.3,12.2,1.6,16.8-4.7c0.8-1.1,5.4,0.6,8.3,1.1c-5.2,1.3-8.2,4.6-7.3,9.9c0.4,2.1,4.2,5.7,4.5,5.5c4.3-2.7,8.3-5.9,12.3-9
		c2.1,1,4.1,2.1,6.2,3.1c0.4,0.9,0.8,1.7,1.2,2.6c-5.3,2.1-3.9,4.9-1.8,9.1c3,6-0.1,10.3-6.9,11.5c-8.1,1.5-11.3,6.1-9.2,13.4
		c-1.4,1.3-2.9,2.6-5,4.4c3.3-0.4,5.6-0.7,7.8-1c0.2,0.4,0.2,0.7,0.1,1.1c-1.2,0.7-2.5,1.4-3.7,2.1c-1,1.4-2,2.8-3,4.2
		c-0.8,1.4-2.5,3-2.3,4.3c1.5,7.8-3.4,9.8-9.3,11.2c-0.6-1.3-0.8-3.2-1.8-3.9c-2.8-1.8-7.7-5-8.6-4.2c-2.9,2.6-6.9,8.4-5.8,10
		c3,4.8-0.2,6.8-1.9,10s-2.4,6.9-3.8,10.3c-0.4,1-1.3,2.5-1.9,2.5c-6.7-0.8-5.6,5.8-8.5,8.7c1.8,1.8,4.6,5.3,5.2,5
		c6.2-3.5,12-7.7,17.9-11.7c1.2-0.5,2.3-0.9,3.5-1.4c-1.5,0.1-3,0.2-4.4,0.3c-2.3-0.8-5.4-1.1-6.6-2.7c-0.9-1.2,0.2-4.7,1.5-6.3
		c3.8-4.6,6.8-8.8,2.2-14.8c-0.6-0.8,1.9-3.9,2.9-5.9c1.8,1.1,4.4,1.7,5.3,3.3c1.2,2.1,1.1,4.9,1.5,7.4c-3.3,8.7,0.9,15.9,4.5,23.2
		c0.5,0.4,1,0.7,1.5,1.1c0.6,0.5,1.2,0.9,1.8,1.4c6.3,2.9,12.7,5.9,17.5,8.1c3.1-2.3,5.8-4.3,8.5-6.2c4.6-3.2,9.2-6.3,13.8-9.4l0,0
		c1.1-1,2.1-2,3.2-3l0,0c2.1-1.6,4.1-3.1,6.2-4.7l0,0c0.5-0.5,1-1,1.6-1.6l0,0c0.5-0.5,1-1.1,1.6-1.6l0,0c0.5-0.5,1-1.1,1.6-1.6l0,0
		c0.8-0.5,1.6-1,2.4-1.6c2.9-3.7,5.8-7.4,8.6-11.1c1.2-1.4,3.4-4.1,3.6-4c3.6,2.4,4,1.7,2.9-2.2c-0.5-1.7,0.6-3.7,0.9-5.6
		c5.8-2.2,11.6-4.3,17.4-6.5c3.1,0.7,6.2,1.4,9.3,2.1c0,3.2,0,6.3,0,9.7c1.5,0.5,3.6,1.9,5.3,1.6c4.7-0.9,9.2-2.7,13.8-3.7
		c2.5-0.5,7.4-0.7,7.5-0.1c1.3,5.8,10,8.2,7,16c-0.8,2,0.6,4.9,1.2,7.3c1.3,5-0.8,6.3-5.4,5.9c-1.5-0.1-3.4,0.3-4.4,1.3
		c-2.9,2.8-5.5,6-8.2,9c-4.4-0.4-8.7-0.8-13.3-1.2c0.2-3.3,0.5-7.2,0.5-11.2c0-1.3-1.2-2.5-1.8-3.7c-3.2,2.5-6.8,4.7-9.2,7.8
		c-0.8,1,1.1,6.1,2.4,6.4c8.3,1.9,8,7,5.9,13.2c-1.8,1.3-3.6,2.6-5.4,3.9c-1.8,2.4-4.1,4.7-5.4,7.3c-2.2,4.4-10.1,10.2-12.9,8.4
		c-5.1-3.3-9.9-7-14.9-10.5c-0.3-0.2-0.7-0.5-1-0.7c-0.1-0.1-0.3,0.1-0.5,0.1c0.5,0.2,1,0.4,1.6,0.5c0.1,5.7-1.9,13.2,8.6,9.9
		c0.4-0.1,1.5,1.6,2.2,2.5c3.4,4.3,10.4,4.5,13.5,0c3.6-5.2,6.5-11.1,13.5-3.9c0.5,0.5,1.9,0.2,2.9,0.2c12.8-0.8,12.8-0.8,11.6,12
		c-0.2,2,0,4.1-0.4,6.1c-0.3,1.4-1.3,3.7-2.1,3.7c-8.6,0-7.2,7.9-10,12.4c-4.9,1.2-10.5,1.5-8,9.3c0.4,1.1-1.5,2.9-2.1,4.5
		c-0.3,0.9-0.3,2.9,0,3c6.9,1.9,3.3,5.5,1.9,9.2c-0.4,0.9,1.6,2.8,2.5,4.3c-2.7,2.6-5.4,5.1-8.1,7.7c-2.7,2.2-5.5,4.4-8.2,6.6
		C466.3,461.6,461.9,465.4,457.5,469.1z M369.5,381.3l0.2-0.1c-1.7,0.1-3.3,0.2-5,0.3c-0.6,0.9-1.2,1.9-1.8,2.8
		c2.5,0.3,5,0.9,7.4,0.8c7.3-0.4,14.7-0.2,21.7-1.8c3.9-0.9,10.5,2.1,11.7-5.4c1.9-0.5,3.8-1,5.8-1.4c1.2,1,3.2,1.7,3.6,2.9
		c2,5.6,5.6,5.5,11.3,3.3c-2.1-1.7-4.7-3-4.5-3.7c0.5-2.5,2-4.8,3.1-7.2c-2.5,0-5,0.2-7.4-0.2c-2.2-0.4-4.3-1.4-6.5-2.1
		c0.1,2.4,0.3,4.7,0.4,7.1c-1.3-0.6-3.2-0.7-3.8-1.7c-4.5-6.6-6.3-7.2-13.8-4.5c1.9,0.3,3.8,0.5,5.8,0.8c-0.7,1-1.4,2-2.1,3
		c-6.9,1.8-13.8,3.6-20.7,5.4C373.2,380.3,371.3,380.8,369.5,381.3z M400.4,452.1c0.6,0.6,1.5,2,1.9,1.8c6.1-1.9,12.1-4,20.5-6.9
		c-5.3-1.2-8.4-1.8-11.4-2.5c-4.8-0.3-9.6-0.6-15.2-1C397.3,446.1,398.9,449.1,400.4,452.1z M320.7,334.2c5.8,2.7,10.9,5,15.8,7.2
		c2.7-9.9,5.4-19.5,8.6-31.1c-11.9,5.9-1.3,19.4-11.7,23.5C328.6,323.9,324.9,332.8,320.7,334.2z M345.3,398.3
		c-0.1,0.5-0.2,1-0.3,1.5c5,3.7,9.9,7.3,14.8,11c4.6,3.5,7.4-0.5,10.6-2.6c0.2-0.1-0.3-2.1-0.7-2.3
		C361.6,403.3,353.5,400.8,345.3,398.3z M343.9,273.9c4.5,3.4,8,5.9,11.2,8.6c1.6,1.3,2.8,3,4.3,4.6c1-1.1,2.9-2.1,2.9-3.3
		c0.1-2.7-0.1-7.6-1.1-7.8C355.8,274.7,350.1,274.5,343.9,273.9z M421.2,423.3c-0.1-0.7-0.2-1.4-0.3-2.2c-4.7,0.5-9.6,0.6-14.2,1.7
		c-1.7,0.4-4.4,3.3-4.2,4.6c0.7,3.5,2.6,6.7,4.3,9.9c0.3,0.6,1.8,0.8,2.8,0.7c0.3,0,0.9-1.6,0.7-2.3c-0.8-3.3-1.9-6.5-2.8-9.8
		c3.7-0.6,7.5-1.2,11.2-1.9C419.6,424,420.4,423.6,421.2,423.3z M445.5,363.9c0.5,1,1.1,2,1.6,3c6.4-3.2,12.8-6.5,19.2-9.7
		c-0.4-0.9-0.8-1.7-1.2-2.6C458.6,357.7,452.1,360.8,445.5,363.9z M336.2,468.8c0.2,0.4,0.4,0.9,0.7,1c0.3,0.1,0.8-0.2,1.2-0.4
		c-0.3-0.5-0.6-1-0.9-1.4C336.8,468.3,336.5,468.5,336.2,468.8z"/>
	<path id="XMLID_507_" class="st2" d="M159.9,462.4c-3.1-0.1-6.1-0.1-9.2-0.2c0.4-3.1,1.9-6.6,1.1-9.4c-2-7.2-4.9-14.1-7.5-21.1
		c4.9,0.4,9.8,1.3,14.6,1.1c2.7-0.1,5.3-2,7.9-3.1c-1.3-1.6-2.7-3.2-4-4.9c-1.7-2.4-3.3-4.8-4.9-7.2c2.7-0.4,5.3-1,8-1.3
		c5.3-0.6,10.7-0.7,15.9-1.9c1.8-0.4,4.3-3.5,4.2-5.2c-0.5-6.6-2.8-12.6-10-15.2c0.6,3,2.8,5,4.1,7.4c1.3,2.3,2.2,5.2,2.1,7.8
		c-0.1,1.3-2.7,3.4-4.4,3.5c-5,0.6-10.1,0.5-15.2,0.4c-1.3,0-3.6-0.7-3.8-1.4c-0.4-1.8-0.3-4,0.4-5.8c2.2-5.3,4.7-10.5,7.2-15.7
		c-1.6-1.1-3.3-2.2-4.9-3.3c-0.1-1-0.3-2-0.4-3c3.6-1.6,7.2-3.2,10.9-4.8c4.1,2.3,7.2,1.8,8.4-3.2c1.1-5.1,3.6-4.3,6.9-2.2
		c2.5,1.6,5.2,2.9,7.8,4.3c0.5,0.5,1.1,0.9,1.6,1.4s1,1.1,1.5,1.6c9.8,9,10.1,20.7,7.7,34.8c8-10.2,4.6-18.4,2.2-26.9
		c-1.4-5-2.3-9.5-8.9-8.9c-0.5-0.5-1-1-1.6-1.5c-0.5-0.5-1-1-1.5-1.5c-2.1-2.2-3.7-5.5-6.2-6.3c-3.5-1.2-9.1-2.1-11.2-0.2
		c-4,3.7-7.1,3.2-11,1.1l0,0c0.7-0.5,1.3-0.9,2-1.4c2,0,5.7,0.5,5.9-0.2c1.3-3.7,1.8-7.7,2.5-11.5c1.8-1.2,4.3-2.8,6.9-4.5
		c12.3,3.3,24.6,6.5,36.8,9.8c0.3-0.9,0.6-1.7,0.8-2.6c-8.8-4.3-17.5-8.6-26.3-12.8c-1.3-0.6-2.8-0.5-4.3-0.8
		c2.6,9.4-6.7-0.1-7.2,4.5c-0.6-0.8-1.3-1.6-1.9-2.4c-1.4-5.1,3.3-13.8-7.7-13.5c-2.6-1.9-5.2-3.8-7.8-5.7c0.7-0.8,1.4-1.5,2.2-2.3
		c3.8-0.2,8.7-1.9,11.2-0.2c5.4,3.8,9.9,6.2,17.2,5c6.3-1.1,13.3,1.7,20,2.7c2.4-0.1,7,0.1,7-0.2c0.4-3.8,1.4-8.2-4.1-9.6
		c-1-1.8-1.5-4-2.9-5.2c-2.7-2.4-5.9-4.2-9-6.1c-0.3-0.2-1.7,1.4-2.5,2.2c2.5,2.3,4.9,4.6,7.4,6.9c-3.2-0.5-6.3-0.9-9.5-1.4l0.1,0.1
		c-5-1.8-9.8-4.5-14.9-5.3c-6.1-0.9-12.5-0.2-18.9-0.2c0.9-2,1.6-3.5,2.3-5.1c-3.8,0.4-6.1,2.1-8.6,3.5c-2,1.2-4.1,2.3-6.2,3.4
		c0.1-3.5,0.3-7.1,0.4-10.6c2.9-1.4,7.5-2.3,8.2-4.4c1.3-4.2,0.5-9.2,0.6-13.8c3.2-0.6,7.1-2.7,9.4-1.5c7.3,3.6,12.5,3.5,15.7-4.8
		c3-0.1,6,0.2,8.8-0.4c1-0.2,2.4-3.1,2-4.1c-1.8-4.7-4.2-9.1-6.4-13.6c2.6-3.7,5.3-7.4,7.9-11.2c2.8,1.3,5.6,2.7,8.5,3.9
		c1.8,0.8,3.7,1.4,5.6,2.1c0.9-3,5.8-6.2-0.5-8.8c-0.9-2.6-1.9-5.1-2.8-7.7c3-0.5,6.1-0.7,8.9-1.6c1.9-0.6,3.4-2.3,5.1-3.5
		c1.7-0.8,3.9-2.8,4.9-2.3c5.1,2.7,7.2-1.1,9.8-3.9c0.3,0.3,0.6,0.6,1,0.9c-2.5,6.8,3.6,6.5,7,8.5c6.4,3.4,11.9,7.3,7.5,15.8
		c-0.3,7.2,0,14.1,7.5,18c0.6,0,0.9,0.2,0.9,0.8l0.6,0.4c3.7,5.3,3.6,10.7,0.4,16.1c-1.4,0.2-2.8,0.3-4.2,0.5c-1.1-4-2-8-3.4-11.8
		c-0.3-0.8-3.4-1.7-3.5-1.4c-5.7,8.3-7.1-0.7-10.2-2.5c-2.9-1.7-5.9-3.4-8.9-4.8c-1.9-0.8-4-1.1-3.9-1.1c-1.7,5-2.7,9.9-4.8,14.2
		c-3.2,6.4-2.1,9.2,4.7,11.4c2.4,0.8,4.3,3.1,6.4,4.7c0.8-3.5,0-6.5-0.9-9.5c-0.5-1.7-1-3.5-1.5-5.2c2,0.5,4.1,0.7,5.9,1.6
		c3.3,1.5,6.6,5.1,9.5,4.7c4.4-0.6,5.3,0.8,6.5,4.1c0.7,2,2.6,3.6,3.9,5.4c3,11.8-5.6,19.5-10.4,28.5c-2.2,4-1.8,6.5,2.9,7.6l0,0
		c0.8,1.5,1.9,2.8,2.3,4.4c1.5,5,3.1,10,3.7,15.1c0.1,1.2-4.4,2.4-5.4,4.3c-1.9,3.6-4.2,7.8-3.7,11.5c0.8,6.3,3.6,12.3,5.5,18.6
		c2.7-2.3,5.1-4.7,7.8-6.7c1.3-0.9,3.3-1.6,4.7-1.3c1.2,0.3,3.1,2.7,2.9,3.2c-0.8,1.7-2.3,3.3-4,4.2c-3.7,2-7.7,3.5-11.5,5.3
		c-2.2,1.1-4.5,2.1-6.7,3.2c-10.8,4.5-21.6,8.8-32.3,13.5c-2.4,1-4.2,3.3-6.3,4.9h0.1c-4.9,0.9-9.9,1.5-14.8,2.6
		c-10.9,2.5-20.9,6.3-25.9,17.2c0.8,0,2.3-0.3,3.8-0.2c4,0.2,8,0.4,12,0.7c-2.6,3.2-5.1,6.4-7.7,9.6c-0.1,0.1-0.1,0.4-0.4,1.7
		c2.9,0,5.5,0,8.1,0c1.4,0,2.8,0.2,4.2,0.4c-0.4,1.4-0.4,3-1.1,4.2c-3.9,6.8-7.7,7.5-18.7,3.4c-1.3-3.6-3.2-3.1-5.9-1.1
		C165.1,459.6,162.4,460.9,159.9,462.4z M229.2,366.9c0.1,0.1,0.3,0.2,0.4,0.3C229.5,367.1,229.3,367,229.2,366.9
		c-0.5-0.7-1-1.4-1.4-2.1c-0.3,0.3-0.5,0.5-0.8,0.8C227.7,366,228.5,366.4,229.2,366.9z M193.4,308.9c0-0.4,0.1-0.7,0.1-1.1
		c-3.4,0-6.7,0-10.1,0c0,0.4,0,0.7,0,1.1C186.8,308.9,190.1,308.9,193.4,308.9z M199.8,311.4c-0.2,0.3-0.4,0.6-0.6,0.9
		c1.4,0.5,2.8,1.1,4.2,1.6c0.1-0.2,0.1-0.3,0.2-0.5C202.3,312.8,201,312.1,199.8,311.4z M244,242.8c-0.2-0.2-0.4-0.6-0.5-0.5
		c-0.5,0.2-0.9,0.4-1.3,0.6c0.2,0.2,0.4,0.5,0.5,0.5C243.1,243.2,243.5,243,244,242.8z"/>
	<path id="XMLID_497_" class="st2" d="M272.3,470.1c1.1,6.1,3.8,12.4-2.1,18.2c-2.9-4.8-6.1-7.8-11.9-3.3c-1.7,1.3-5.4-0.2-8.1-0.1
		c-0.2,0-0.4,1.9-0.6,2.8l-0.1,0.5c-11.7-0.4-23.3-0.7-35-1.3c-1.7-0.1-4.7-2.2-4.6-2.5c0.9-2.5,2.2-4.9,3.8-7.2
		c0.2-0.3,2.1,0.5,3.3,0.7c1,0.1,2.1,0.1,3.1-0.1c5.1-1,11-4.7,12.5,4.7c0.2,1.1,4.1,1.6,8.5,3.3c-8.4-9.6-2.5-8.7,3-9.6
		C253.5,474.7,262.9,472.2,272.3,470.1L272.3,470.1z"/>
	<path id="XMLID_491_" class="st3" d="M412.1,480.8c8.9-0.3,17.8-0.6,26.8-0.8c5.2-0.2,10.4-0.3,15.5-0.5c-3.9,1.1-7.8,2.8-11.8,3.3
		c-13.8,1.7-27.7,3-41.6,4.5c0.2-2.4,0.5-4.8,0.7-7.2C405.1,480.3,408.6,480.5,412.1,480.8z"/>
	<path id="XMLID_489_" class="st3" d="M244.3,232.6c-2.6,2.8-4.7,6.6-9.8,3.9c-1-0.5-3.2,1.5-4.9,2.3c0-0.5-0.3-1.2-0.1-1.5
		c0.9-1.4,1.7-3.5,2.9-3.9c5.5-1.6,11.2-3,16.9-3.8c0.8-0.1,2.6,3.5,3.1,5.6s-0.1,4.5-0.2,6.7c-3.3-2-9.5-1.7-7-8.5
		c0-0.6,0.1-1.1,0.1-1.7C245,232.1,244.6,232.4,244.3,232.6z"/>
	<path id="XMLID_487_" class="st3" d="M148,457.9c-0.1-1.9,0.6-4.6-0.4-5.6c-6.7-6.1-4.8-13.3-3.4-20.6c2.6,7,5.5,13.9,7.5,21.1
		c0.8,2.8-0.7,6.2-1.1,9.4C149.8,460.8,148.9,459.3,148,457.9z"/>
	<path id="XMLID_485_" class="st3" d="M192.4,283.7c0.2-0.4,0.2-1,0.5-1.2c2.1-1.3,4.2-2.5,6.3-3.7c-2-1.5-3.9-3-5.9-4.5
		c1.2-2.9,2.3-5.8,3.5-8.6c2.2,4.5,4.6,9,6.4,13.6c0.4,1-1,3.9-2,4.1C198.4,284,195.3,283.7,192.4,283.7z"/>
	<path id="XMLID_482_" class="st3" d="M218.2,251.6c6.4,2.6,1.4,5.8,0.5,8.8c-1.9-0.7-3.8-1.3-5.6-2.1c-2.9-1.2-5.7-2.6-8.5-3.9
		c4.3,0.5,8.5,1.1,13.5,1.7C218.2,255.8,218.2,253.7,218.2,251.6z"/>
	<path id="XMLID_477_" class="st3" d="M376.4,260.9c-1.4-0.1-2.7-0.3-4.1-0.4C373.7,260.7,375,260.8,376.4,260.9z"/>
	<path id="XMLID_467_" class="st4" d="M286.1,459c-13.5,4.5-26.9,9.2-40.4,13.6c-11.3,3.7-22.1,1.9-32.3-4c-2.4-1.4-4.3-3.6-6-6.3
		c12.9,3.9,25.3,5.4,36.2,1.1c-9-1.5-19.9-2-29.7-5.4c-9.3-3.2-15.6-11.9-9.7-21.9c3.3-5.6,6.5-11.3,9.7-16.9h-0.1
		c6.8-2.6,13.8-4.8,20.4-8c6.3-3,12.2-6.9,18.2-10.5c2.2-1.1,4.5-2.1,6.7-3.2c1.7-0.2,3.5-0.1,5.1-0.6c6.1-2,12-4.2,15.6,3.8
		c1,1.6,2.1,3.2,3.1,4.8c1.9,1.4,3.6,3.7,5.7,4.2c4.2,1,8.5,1.4,12.8,1.3c5.2-0.1,6.7,2.2,6.1,6.9c-0.6,4.5-0.9,9-1.4,13.5l0,0
		c-0.8,1.6-1.5,3.1-2.3,4.7c-6.8,5.3-12.8,11-14.3,20.1C289.4,457.4,287.3,458.2,286.1,459z M293.5,434.3c-0.6,0.4-1.2,0.8-1.8,1.1
		c-3.6,2.8-7.2,5.7-10.8,8.5c0.6,0.7,1.2,1.4,1.8,2.1c3.3-3.2,6.7-6.3,10-9.5c0.4-0.6,0.8-1.2,1.2-1.9c0.2-0.5,0.4-1,0.5-1.4
		C294.1,433.6,293.8,434,293.5,434.3z M242.2,440.4c2,1.9,3.9,3.6,5.7,5.4c2.3-4.1,6.8-8.3,6.4-12.1c-0.5-6.4,0.1-14.1-6.1-18.9
		c-1.6-1.2-3.7-1.9-5.5-2.8c-0.3,1.8-1.4,4-0.8,5.4C245.4,424.6,248.1,431.7,242.2,440.4z M249.8,460.1c0.3,0.7,0.6,1.5,0.9,2.2
		c7.1-2.8,14.1-5.6,21.2-8.5c-0.3-0.8-0.7-1.6-1-2.4C263.9,454.3,256.8,457.2,249.8,460.1z M275.9,447.6c0.2,0.3,0.3,0.7,0.5,1
		c1.2-0.5,2.3-1.1,3.5-1.7c0,0-0.3-0.7-0.4-1.1C278.2,446.4,277.1,447,275.9,447.6z"/>
	<path id="XMLID_466_" class="st4" d="M409.1,306c7.9-8.5,17.7-13.3,29.2-14.6c1.2,0.5,2.3,1,3.5,1.5l-0.1-0.1
		c13.7,6.7,9.4,17.2,5.8,28c3-3.8,4.4-7.9,6.1-11.8c0.9-1.9,2.4-3.6,3.6-5.4l0,0c-1.3,7.3-2.7,14.5-3.9,21.8
		c-0.2,1.3,0.6,2.8,0.9,4.2c-2.9,3.7-5.8,7.4-8.6,11.1c-0.8,0.5-1.6,1-2.4,1.6l0,0c-0.5,0.5-1,1.1-1.6,1.6l0,0
		c-0.5,0.5-1,1.1-1.6,1.6l0,0c-0.5,0.5-1.1,1-1.6,1.6l0,0c-2.1,1.6-4.1,3.1-6.2,4.7l0,0c-1.1,1-2.1,2-3.2,3l0,0
		c-3.2,1.3-6.3,3.1-9.6,3.8c-2.7,0.6-5.7-0.1-8.5-0.3c1.6-1.9,3.3-3.8,4.8-5.7c0.3-0.3,0.2-0.9,0.5-2.6c-2.8,1.1-4.8,2.3-7,2.8
		s-4.6,0.3-6.9,0.5c0.2-0.4,0.3-0.9,0.2-1.3c0.2-0.5,0.5-0.9,0.7-1.4c-0.8,0.4-1.7,0.9-2.5,1.3c-2.7,0.4-5.4,0.8-8.1,1.1
		c-2.2,2.3-4.4,4.5-6.7,6.8c-3.5-7.4-7.8-14.6-4.5-23.2c1-2.2,2.1-4.3,3.1-6.5c5.9-1.4,10.8-3.4,9.3-11.2c-0.2-1.2,1.5-2.8,2.3-4.3
		c1-0.6,2-1.3,3-1.9c2.8,3.6,5.6,7.3,8.5,10.8c0.2,0.3,1.8,0,2-0.3c1.3-3.2,3-6.4,3.2-9.7c0.1-0.9-4.2-2.8-6.6-3
		c-2.3-0.2-4.7,1.4-7.1,2.2c0-0.8,0-1.5,0-2.3c1.2-0.7,2.5-1.4,3.7-2.1C405.2,307.4,407.1,306.7,409.1,306z"/>
	<path id="XMLID_465_" class="st3" d="M279.9,400.9c-3.6-8-9.6-5.8-15.6-3.8c-1.6,0.5-3.4,0.4-5.1,0.6c3.9-1.7,7.8-3.3,11.5-5.3
		c1.7-0.9,3.1-2.5,4-4.2c0.3-0.5-1.7-3-2.9-3.2c-1.4-0.3-3.4,0.4-4.7,1.3c-2.7,2-5.1,4.3-7.8,6.7c-2-6.2-4.7-12.3-5.5-18.6
		c-0.5-3.7,1.8-7.9,3.7-11.5c1-1.9,5.5-3.1,5.4-4.3c-0.6-5.1-2.3-10.1-3.7-15.1c-0.5-1.6-1.5-2.9-2.3-4.4c2.4,0.7,4.9,1.3,7.2,1.9
		c-1.6-5.6,2.2-9.3,7.4-10.7c8.8-2.5,10.6-8.8,10.9-16.5c0.4-10.2,1.8-11.3,11.9-9.7c-9.6,3.2-10.1,4.8-5.1,15.1
		c-2.4,5.5-4.6,11.3-11.6,12.6c-1.9,0.7-4.3,0.8-5.5,2.1c-1.7,1.9-3,4.6-3.3,7c-0.1,1,2.7,2.7,4.5,3.5c3.2,1.5,6.5,2.6,9.8,3.8
		c0.2,0.2,0.4,0.4,0.6,0.7c0-0.1,0-0.3-0.1-0.4c-0.2-0.1-0.4-0.1-0.6-0.2c2.1-5.6,7.2-3.8,9.2-1.7c6.2,6.6,13.1,2.3,19.7,3.1
		c7,0.9,13.6,4,20.4,6.2c-4.6,1.1-6.1,2.9-1.2,6c3,1.9,5.9,4,9.1,5.5c1.2,0.6,3.1-0.4,4.7-0.6c-0.8-1.3-1.4-2.9-2.6-3.8
		c-3.2-2.5-6.6-4.7-10-7.1c6.7-0.8,11.9,2.1,15.8,7.2c1.1,1.4,0.5,4,0.6,6.1c0,0.6-0.1,1.2-0.2,1.9c7.9,0.6,2.6,5.4,1.6,7.3
		c-0.7,1.5-4.5,2.4-6.6,2c-12.3-2.7-24.5-5.8-35.8-8.5c0.4-2.5,1.4-5.5,0.9-5.7c-8.5-4-17.2-7.7-25.8-11.5c-4-2.1-7.8-4.5-12-6.1
		c-1.5-0.6-3.9,0.5-5.4,1.6c-0.5,0.4,0.5,2.9,0.8,4.5c0.4,2.7,2.1,6.6,1,8.1c-5.1,6.3,1.2,8.3,3.8,11.6c1,1.3,2.9,1.8,4.4,2.7
		c0.4,0.6,0.9,1.8,1.1,1.7c8.1-2.4,8.9,1.2,6.7,7.8c-0.4,1.1,0.2,2.5,0.4,3.7C282.3,393.9,281.1,397.4,279.9,400.9z"/>
	<path id="XMLID_463_" class="st3" d="M361.5,471.4c13.6,1.6,13.6,1.6,11.4-11.6c-0.2-1.3-0.4-2.5-0.6-3.8
		c-1.7-7.9,1.1-13.1,8.5-11.9c10.9,1.7,7-5.3,5.6-8.7c-2.6-6.6-2.6-10.4,5.1-13c4.6-1.5,4.2-2.4,6.6,3c0.8,1.7,2.1,3.2,2.1,3.3
		c-1.6,3.3-3.9,6.8-4.8,10.5c-1.9,8.6-5.5,16.1-13.4,20.3c-3.7,2-5.6,3.7-4.8,7.9c0.2,1.2,0.3,3-0.4,3.7c-7.1,6.9-0.7,7.5,4.4,8.7
		c-5.8,5-15.4,4.1-21.5,1.7c-4.1-1.6-10.1,1.4-15.2,2.5c-0.9,0.2-1.6,1.3-2.3,1.9c-0.4-0.4-0.8-0.7-1.3-1.1c1.1-3-0.6-8.4,6.1-6.5
		c0.8,0.2,2.7-3.5,4.1-5.4C354.5,472.5,358,471.9,361.5,471.4z"/>
	<path id="XMLID_462_" class="st3" d="M511.7,428.8c-3.7,4.3-5.8,9.1-5.4,15.1c0.1,1.9-2.3,4-3.6,6c-0.5-0.4-1-0.8-1.6-1.2
		c1.1-6.2,2.7-12.3,3-18.5c0.1-1.6-3.8-3.8-6.2-5c-2.1-1-4.7-1-7-1.5c2.8-4.5,1.5-12.3,10-12.4c0.7,0,1.8-2.3,2.1-3.7
		c0.4-2,0.2-4.1,0.4-6.1c1.1-12.8,1.1-12.8-11.6-12c-1,0.1-2.4,0.4-2.9-0.2c-7-7.2-10-1.3-13.5,3.9c-3.1,4.5-10.1,4.2-13.5,0
		c-0.7-0.9-1.8-2.7-2.2-2.5c-10.6,3.3-8.6-4.2-8.6-9.9l-0.1,0.1c4.9,3.5,9.8,7.2,14.9,10.5c2.8,1.8,10.7-4,12.9-8.4
		c1.3-2.7,3.6-4.9,5.4-7.3c0.3,0.3,0.7,0.6,1,0.9c-0.6,1.7-1.1,3.5-1.7,5.2c1.8,0.4,3.6,0.9,5.5,1.1c1.2,0.1,2.5-0.3,3.7-0.4
		c-0.6,8.4,5.9,4.1,8.9,4.4c7.6,0.9,8.6,2,5.4,8.6c-0.7,1.5-1.3,3.8-0.7,5.2c2.5,6.1-0.1,10.5-4.2,14.7c-0.9,0.9-0.6,2.9-0.9,4.4
		c1.7-0.2,4.2,0.3,5-0.6c3.6-4.5,6.7-9.3,9.9-14c0.7-1.1,1.3-2.2,2-3.3c0.5,1.5,2,3.4,1.5,4.4c-2.5,5-5.1,10-8.3,14.5
		C508.6,424,508.7,426.3,511.7,428.8z"/>
	<path id="XMLID_461_" class="st3" d="M384.9,329.8c-1,2.2-2.1,4.3-3.1,6.5c-0.4-2.5-0.3-5.3-1.5-7.4c-0.9-1.6-3.5-2.3-5.3-3.3
		c-1.1,2-3.5,5.1-2.9,5.9c4.6,6,1.6,10.2-2.2,14.8c-1.3,1.6-2.4,5.2-1.5,6.3c1.2,1.6,4.3,1.9,6.6,2.7c0.3,0.4,0.6,0.8,0.9,1.1
		c-5.9,4-11.7,8.1-17.9,11.7c-0.6,0.3-3.4-3.2-5.2-5c2.8-2.8,1.7-9.5,8.5-8.7c0.5,0.1,1.5-1.5,1.9-2.5c1.3-3.4,2.1-7.1,3.8-10.3
		c1.6-3.2,4.9-5.2,1.9-10c-1-1.7,2.9-7.4,5.8-10c0.9-0.8,5.8,2.4,8.6,4.2C384.1,326.6,384.3,328.5,384.9,329.8z"/>
	<path id="XMLID_460_" class="st3" d="M332.8,412.1c-1.8,7.6,1.4,16.8-7.1,22.4c1.6,2.2,3.1,4.5,4.9,6.5c1.9,2.1,3.9,4.1,6.1,5.9
		c2.3,1.8,4.9,3.2,7.3,4.7c1.1,0.7,2.3,1.2,3.4,1.9c-1.2,0.8-2.7,2.4-3.7,2.1c-3.8-1.1-7.7-2.4-11-4.5c-4.2-2.6-7.7-6.3-11.8-9.2
		c-4.4-3.1-4.9-6.4-1.5-10.3c1.6-1.9,3.8-3.3,5.4-5.2c5.1-6.1,4.8-9.8-1-15.7c0.3-0.3,0.7-0.7,1-1c2.2,0.4,4.5,0.8,6.7,1.2
		C332.1,411.3,332.5,411.7,332.8,412.1z"/>
	<path id="XMLID_456_" class="st3" d="M386.3,359.6c2.2-2.3,4.4-4.5,6.7-6.8c3.2,0.1,6.5,0.1,9.7,0.2c2.3-0.1,4.7,0,6.9-0.5
		s4.2-1.7,7-2.8c-0.3,1.7-0.2,2.3-0.5,2.6c-1.6,1.9-3.2,3.8-4.8,5.7c2.9,0.1,5.8,0.9,8.5,0.3c3.3-0.7,6.4-2.5,9.6-3.8
		c-4.6,3.1-9.3,6.2-13.8,9.4c-2.7,1.9-5.3,3.9-8.5,6.2c-4.8-2.3-11.2-5.2-17.5-8.1c0.2-0.7,0.4-1.4,0.7-2.1
		c-0.8,0.2-1.6,0.5-2.4,0.7C387.2,360.3,386.7,359.9,386.3,359.6z M393.7,360.5c0,0.4-0.1,0.8-0.1,1.2c3.7,0.6,7.4,1.7,11.1,1.7
		c1.4,0,2.9-2.5,4.3-3.9c-1.4-0.3-2.9-1-4.3-0.8C401,359,397.3,359.8,393.7,360.5z"/>
	<path id="XMLID_455_" class="st3" d="M505.1,360.3c5.4,2.3,5.2,3-2.1,8.5c-5.3-3.1-9.7-1.5-13.6,2.6l0.1,0.1
		c2.1-6.2,2.4-11.3-5.9-13.2c-1.3-0.3-3.1-5.4-2.4-6.4c2.5-3.1,6.1-5.3,9.2-7.8c0.6,1.2,1.8,2.5,1.8,3.7c0.1,4-0.3,7.9-0.5,11.2
		C496.4,359.5,500.7,359.9,505.1,360.3z"/>
	<path id="XMLID_450_" class="st3" d="M283,405.7c1.8,0.1,3.5,0.2,5.3,0.2c9.3,2.2,18.5,4.2,26.1-4.6c1.2-1.4,4.5-1,6.8-1.5
		c0.2,2.3,0.5,4.6,0.7,6.9c-0.3,0.3-0.5,0.5-0.8,0.8c-1.9-1-4.8-3.2-5.4-2.7c-2.8,2.4-7.7,3.5-5.1,9.8c2.5,6,0.5,12.3-4.4,17.1
		c0.5-4.5,0.8-9,1.4-13.5c0.6-4.8-0.8-7.1-6.1-6.9c-4.3,0.1-8.7-0.3-12.8-1.3C286.6,409.3,284.9,407.1,283,405.7z"/>
	<path id="XMLID_449_" class="st3" d="M269,293c3.5,5.6,7,1,10.5-0.1c0.9-0.3,1.9-0.4,2.9-0.5c-0.6,1.1-1.1,2.2-1.7,3.3
		c-0.5,0.2-0.9,0.4-1.4,0.5c-9,2.6-14.2,7.4-11.7,17.8c0.5,2.3-1.3,5.3-2.4,7.7c-2.6,5.9-5.5,11.6-8.2,17.5c-4.7-1.1-5-3.5-2.9-7.6
		c4.8-9,13.4-16.6,10.4-28.5c0.1-3.2,0.2-6.5,0.3-9.7C266.2,293.4,267.6,293.2,269,293z"/>
	<path id="XMLID_447_" class="st3" d="M318.9,344.5c4.2-1.4,7.9-10.3,12.7-0.4c10.4-4.2-0.2-17.6,11.7-23.5
		c-3.2,11.6-5.8,21.2-8.6,31.1C329.8,349.5,324.8,347.2,318.9,344.5z"/>
	<path id="XMLID_446_" class="st3" d="M343.6,408.6c8.1,2.5,16.2,5.1,24.3,7.7c0.5,0.2,0.9,2.2,0.7,2.3c-3.2,2.1-5.9,6.1-10.6,2.6
		c-4.9-3.7-9.9-7.4-14.8-11C343.4,409.6,343.5,409.1,343.6,408.6z"/>
	<path id="XMLID_445_" class="st3" d="M407.9,387c-0.1-2.4-0.3-4.7-0.4-7.1c2.2,0.7,4.3,1.8,6.5,2.1c2.4,0.4,4.9,0.2,7.4,0.2
		c-1.1,2.4-2.6,4.7-3.1,7.2c-0.1,0.8,2.4,2,4.5,3.7c-5.8,2.2-9.3,2.3-11.3-3.3C411,388.6,409.1,387.9,407.9,387
		C407.8,386.9,407.9,387,407.9,387z"/>
	<path id="XMLID_444_" class="st3" d="M342.2,284.2c6.2,0.6,11.9,0.8,17.3,2.1c1,0.2,1.2,5.1,1.1,7.8c0,1.1-1.9,2.2-2.9,3.3
		c-1.4-1.5-2.7-3.3-4.3-4.6C350.1,290.1,346.7,287.6,342.2,284.2z"/>
	<path id="XMLID_442_" class="st3" d="M419.5,433.7c-0.9,0.3-1.7,0.7-2.6,0.8c-3.7,0.7-7.4,1.3-11.2,1.9c1,3.3,2,6.5,2.8,9.8
		c0.2,0.7-0.4,2.2-0.7,2.3c-0.9,0.1-2.4-0.1-2.8-0.7c-1.7-3.2-3.6-6.5-4.3-9.9c-0.3-1.3,2.4-4.1,4.2-4.6c4.6-1.1,9.4-1.2,14.2-1.7
		C419.3,432.2,419.4,432.9,419.5,433.7z"/>
	<path id="XMLID_440_" class="st3" d="M454.2,329.6c-0.3-1.4-1.1-2.9-0.9-4.2c1.2-7.3,2.5-14.5,3.9-21.8c1,2.5,2.2,4.9,3,7.4
		c0.7,2.2,1,4.5,1.4,6.7c-0.3,1.9-1.4,4-0.9,5.6c1.1,4,0.7,4.6-2.9,2.2C457.6,325.5,455.5,328.2,454.2,329.6z"/>
	<path id="XMLID_439_" class="st3" d="M293.9,291.5c1.9-2.7,3.5-5.9,6-7.9c0.7-0.6,4.3,1.9,6.2,3.5c1.4,1.1,2,3.1,3,4.7
		c-1.5-0.2-3-0.4-4.5-0.5c-1-1.8-0.5-6.9-4.6-1.8c-1.1,1.4-4.1,1.4-6.2,2H293.9z"/>
	<path id="XMLID_438_" class="st3" d="M488,451.9c2.9-0.8,5.8-1.6,8.7-2.3c0.4,1,0.7,1.9,1.1,2.9c-6.9,3-13.8,6.1-20.7,9.1
		c2.7-2.6,5.4-5.1,8.1-7.7l0.3-0.2C486.4,453.1,487.2,452.5,488,451.9z"/>
	<path id="XMLID_437_" class="st3" d="M443.8,374.2c6.6-3.1,13.1-6.2,19.7-9.3c0.4,0.9,0.8,1.7,1.2,2.6c-6.4,3.2-12.8,6.5-19.2,9.7
		C444.9,376.2,444.3,375.2,443.8,374.2z"/>
	<path id="XMLID_435_" class="st3" d="M402.1,388.4c-0.7-1-1.3-2-2-3c-0.6-0.3-1.1-0.7-1.7-1c-1.5,0.1-3,0.2-4.4,0.3
		c0.7-1,1.4-2,2.1-3c-2-0.3-3.9-0.5-5.8-0.8c7.5-2.8,9.3-2.1,13.8,4.5c0.7,1,2.5,1.2,3.8,1.7V387C405.9,387.4,404,387.9,402.1,388.4
		z"/>
	<path id="XMLID_433_" class="st3" d="M400.3,303.5c2-0.7,3.9-1.4,5.9-2.2c-0.1,1-0.3,1.9-0.4,2.9c-0.8,0.9-1.7,1.8-2.5,2.6
		l-0.1,0.1c-2.3,0.3-4.5,0.6-7.8,1C397.4,306,398.8,304.7,400.3,303.5z"/>
	<path id="XMLID_432_" class="st5" d="M293.8,291.4c2.1-0.6,5.1-0.6,6.2-2c4.1-5.2,3.6-0.1,4.6,1.8
		C301,291.3,297.4,291.3,293.8,291.4z"/>
	<path id="XMLID_431_" class="st3" d="M432.5,351.6c2.1-1.6,4.1-3.1,6.2-4.7C436.6,348.4,434.5,350,432.5,351.6z"/>
	<path id="XMLID_430_" class="st3" d="M484.1,375.5c1.8-1.3,3.6-2.6,5.4-3.9l-0.1-0.1c-1.4,1.6-2.9,3.3-4.3,4.9
		C484.8,376.1,484.4,375.8,484.1,375.5z"/>
	<path id="XMLID_428_" class="st3" d="M399.5,312.5c-1,0.6-2,1.3-3,1.9c1-1.4,2-2.8,3-4.2C399.5,310.9,399.5,311.7,399.5,312.5
		C399.5,312.4,399.5,312.5,399.5,312.5z"/>
	<path id="XMLID_427_" class="st3" d="M429.4,354.6c1.1-1,2.1-2,3.2-3C431.5,352.5,430.4,353.5,429.4,354.6z"/>
	<path id="XMLID_426_" class="st3" d="M334.4,479.1c0.3-0.3,0.7-0.5,1-0.8c0.3,0.5,0.6,1,0.9,1.4c-0.4,0.1-0.9,0.5-1.2,0.4
		C334.8,480.1,334.7,479.5,334.4,479.1z"/>
	<path id="XMLID_425_" class="st3" d="M409.1,306c-1.9,0.7-3.9,1.3-5.8,2c0.1-0.4,0.1-0.8-0.1-1.1l0.1-0.1c1.1-0.4,2.2-0.8,3.2-1.2
		C407.4,305.7,408.2,305.9,409.1,306z"/>
	<path id="XMLID_424_" class="st4" d="M387.7,360.6c0.8-0.2,1.6-0.5,2.4-0.7c-0.2,0.7-0.4,1.4-0.7,2.1
		C388.9,361.5,388.3,361.1,387.7,360.6z"/>
	<path id="XMLID_423_" class="st3" d="M331.8,410.8c1.4,0,2.9-0.1,4.3-0.1c-1.1,0.4-2.2,0.9-3.3,1.3
		C332.5,411.7,332.1,411.3,331.8,410.8z"/>
	<path id="XMLID_422_" class="st3" d="M373.3,390c-1.9,0.5-3.7,1.1-5.6,1.6C369.6,391.1,371.4,390.6,373.3,390z"/>
	<path id="XMLID_421_" class="st3" d="M374.9,355.4c1.5-0.1,3-0.2,4.4-0.3c-1.2,0.5-2.3,0.9-3.5,1.4
		C375.5,356.2,375.2,355.8,374.9,355.4z"/>
	<path id="XMLID_420_" class="st3" d="M303.9,436.2c0.8-1.6,1.5-3.1,2.3-4.7C305.4,433.1,304.7,434.7,303.9,436.2z"/>
	<path id="XMLID_419_" class="st3" d="M451,380.7c-0.5-0.2-1-0.4-1.6-0.5c0.2,0,0.4-0.2,0.5-0.1C450.3,380.3,450.6,380.5,451,380.7
		C451,380.8,451,380.7,451,380.7z"/>
	<path id="XMLID_418_" class="st3" d="M438.6,346.9c0.5-0.5,1.1-1,1.6-1.6C439.7,345.9,439.1,346.4,438.6,346.9z"/>
	<path id="XMLID_417_" class="st3" d="M440.2,345.4c0.5-0.5,1-1.1,1.6-1.6C441.2,344.3,440.7,344.8,440.2,345.4z"/>
	<path id="XMLID_416_" class="st3" d="M322.7,408.9c-0.5-0.5-1.1-1-1.6-1.5c0.3-0.2,0.5-0.5,0.8-0.8c0.6,0.5,1.1,1,1.6,1.4
		C323.3,408.4,323,408.6,322.7,408.9z"/>
	<path id="XMLID_415_" class="st5" d="M295.4,380.8c0.1-0.2,0.1-0.5,0.2-0.6s0.3-0.1,0.4-0.1c-0.2,0.2-0.5,0.4-0.7,0.6
		C295.3,380.7,295.4,380.8,295.4,380.8z"/>
	<path id="XMLID_414_" class="st3" d="M443.2,342.3c0.8-0.5,1.6-1,2.4-1.6C444.8,341.2,444,341.8,443.2,342.3z"/>
	<path id="XMLID_413_" class="st3" d="M323.5,408.1c0.5,0.5,1,1,1.5,1.5c-0.3,0.3-0.6,0.7-1,1c-0.5-0.6-0.9-1.1-1.4-1.7
		C323,408.6,323.3,408.4,323.5,408.1z"/>
	<path id="XMLID_412_" class="st3" d="M323.5,286.5c0.4-0.4,0.8-0.9,1.2-1.3C324.3,285.6,323.9,286,323.5,286.5z"/>
	<path id="XMLID_411_" class="st3" d="M441.7,343.8c0.5-0.5,1-1.1,1.6-1.6C442.7,342.8,442.2,343.3,441.7,343.8z"/>
	<path id="XMLID_410_" class="st4" d="M135.1,369.9c-0.3-11.6,4-20.3,15.2-24.9c3.7-0.7,7.4-1.3,11.1-2c11.7-2.3,17.4-0.5,21.5,6.7
		c0.6,0.8,1.3,1.6,1.9,2.4c0,0.6,0,1.3,0,1.9c-2.5,1.6-5.1,3.3-6.9,4.5c-0.8,3.8-1.2,7.8-2.5,11.5c-0.2,0.7-3.8,0.2-5.9,0.2
		c-0.7,0.5-1.3,0.9-2,1.4l0,0c-1,1.5-1.9,3-2.9,4.6c1.5,0.2,3,0.8,4.4,0.5c2.4-0.4,4.6-1.3,6.9-2c0.2,0.5,0.3,1,0.5,1.6
		c-1.6,1-3.2,2-4.8,2.9c-3.6,1.6-7.2,3.2-10.8,4.8c0.2,1,0.3,2,0.4,3c1.6,1.1,3.3,2.2,4.9,3.3c-2,0.8-5.6,2.4-5.6,2.3
		c-3.8-7.9-9.9-1.3-14.6-2.4c-1,0-2,0-3,0c-1.7-1.6-4.4-2.9-5-4.8C136.6,380.3,136.1,375,135.1,369.9z"/>
	<path id="XMLID_408_" class="st3" d="M146,390.2c4.7,1.1,10.8-5.5,14.6,2.4c0,0.1,3.7-1.5,5.6-2.3c-2.4,5.2-5,10.4-7.2,15.7
		c-0.7,1.7-0.8,4-0.4,5.8c0.2,0.8,2.5,1.4,3.8,1.4c5.1,0.1,10.2,0.2,15.2-0.4c1.7-0.2,4.3-2.2,4.4-3.5c0.1-2.6-0.9-5.4-2.1-7.8
		c-1.3-2.4-3.5-4.4-4.1-7.4c7.3,2.6,9.6,8.6,10,15.2c0.1,1.7-2.4,4.8-4.2,5.2c-5.2,1.2-10.6,1.3-15.9,1.9c-2.7,0.3-5.3,0.9-8,1.3
		c-4.3-1.3-8.6-2.6-12.9-3.9c1.7-1.8,3.4-3.6,5-5.4C154.2,403.5,151.9,393.1,146,390.2z"/>
	<path id="XMLID_406_" class="st3" d="M204.4,322.5c-2.9-0.1-6,0.4-8.6-0.5c-10.1-3.2-20.1-2.7-30.1,0.1c-5.6,1.6-6.2,1.3-7.6-3.3
		c2.1-1.1,4.2-2.2,6.2-3.4c2.5-1.5,4.9-3.1,8.6-3.5c-0.7,1.6-1.4,3.1-2.3,5.1c6.5,0,12.8-0.7,18.9,0.2
		C194.7,318,199.5,320.7,204.4,322.5z"/>
	<path id="XMLID_405_" class="st3" d="M171.8,379.1c1.6-1,3.2-2,4.8-2.9c-0.2-0.5-0.3-1-0.5-1.6c-2.3,0.7-4.6,1.6-6.9,2
		c-1.4,0.2-3-0.3-4.4-0.5c1-1.5,1.9-3,2.9-4.6c3.9,2.1,7,2.6,11-1.1c2-1.9,7.7-0.9,11.2,0.2c2.5,0.8,4.2,4.1,6.2,6.3
		c-0.4,0.3-0.7,0.7-1.1,1.1c-2.6-1.4-5.3-2.7-7.8-4.3c-3.3-2.1-5.8-2.9-6.9,2.2C179.1,380.9,175.9,381.4,171.8,379.1z"/>
	<path id="XMLID_404_" class="st3" d="M199.1,380c6.6-0.6,7.5,3.9,8.9,8.9c2.4,8.5,5.7,16.7-2.2,26.9c2.4-14.1,2.1-25.7-7.7-34.8
		C198.4,380.7,198.8,380.4,199.1,380z"/>
	<path id="XMLID_403_" class="st3" d="M252.4,400.9c-6.1,3.5-11.9,7.5-18.2,10.5c-6.6,3.1-13.6,5.3-20.4,8c2.1-1.7,3.9-3.9,6.3-4.9
		C230.8,409.7,241.6,405.4,252.4,400.9z"/>
	<path id="XMLID_402_" class="st3" d="M182.9,349.7c-4-7.3-9.8-9-21.5-6.7c-3.7,0.7-7.4,1.4-11.1,2c-0.6-5.3,3.7-4.9,6.6-5.1
		c5.8-0.4,11.7-0.4,17.5-0.2c7.4,0.3-1.4-2.8,0.8-3.5C186.2,335.9,181.5,344.6,182.9,349.7z"/>
	<path id="XMLID_401_" class="st3" d="M158.5,308.3c1.5-4.9,2.8-9.9,4.7-14.6c0.6-1.5,2.7-2.4,4.1-3.6c-0.1,4.6,0.8,9.6-0.6,13.8
		C166,306,161.4,306.8,158.5,308.3z"/>
	<path id="XMLID_400_" class="st3" d="M213.8,323.8c-2.5-2.3-4.9-4.6-7.4-6.9c0.9-0.8,2.2-2.4,2.5-2.2c3.1,1.8,6.3,3.7,9,6.1
		c1.4,1.2,2,3.5,2.9,5.2c-0.6,0.5-1.1,1-1.7,1.4C217.4,326.2,215.6,325,213.8,323.8L213.8,323.8z"/>
	<path id="XMLID_399_" class="st3" d="M218,335.8c0-0.4,0-0.8-0.2-1.2c7.8-0.9,1.1-4.7,1.4-7.1c0.6-0.5,1.1-1,1.7-1.4
		c5.5,1.4,4.5,5.8,4.1,9.6C225,335.9,220.5,335.7,218,335.8z"/>
	<path id="XMLID_398_" class="st3" d="M193.4,308.9c-3.3,0-6.6,0-9.9,0c0-0.4,0-0.7,0-1.1c3.4,0,6.7,0,10.1,0
		C193.5,308.2,193.5,308.6,193.4,308.9z"/>
	<path id="XMLID_397_" class="st3" d="M213.3,327.2c-3-1.6-6-3.2-9-4.8c3.2,0.5,6.3,0.9,9.5,1.4l-0.1-0.1
		C213.6,324.9,213.5,326.1,213.3,327.2z"/>
	<path id="XMLID_396_" class="st5" d="M199.8,311.4c1.2,0.7,2.5,1.3,3.7,2c-0.1,0.2-0.1,0.3-0.2,0.5c-1.4-0.5-2.8-1.1-4.2-1.6
		C199.4,312,199.6,311.7,199.8,311.4z"/>
	<path id="XMLID_395_" class="st5" d="M229.2,366.9c-0.7-0.5-1.5-0.9-2.2-1.4c0.3-0.3,0.5-0.5,0.8-0.8
		C228.2,365.5,228.7,366.2,229.2,366.9L229.2,366.9z"/>
	<path id="XMLID_394_" class="st3" d="M167.5,330.5c-0.2-1.1-0.4-2.3-0.6-3.4c0.9,0.4,1.9,0.7,2.8,1.1
		C168.9,329,168.2,329.8,167.5,330.5z"/>
	<path id="XMLID_393_" class="st3" d="M244,242.8c-0.4,0.2-0.8,0.5-1.3,0.6c-0.1,0-0.3-0.3-0.5-0.5c0.4-0.2,0.8-0.5,1.3-0.6
		C243.6,242.2,243.8,242.6,244,242.8z"/>
	<path id="XMLID_392_" class="st3" d="M161.4,386.9c-0.1-1-0.3-2-0.4-3C161.1,384.9,161.3,385.9,161.4,386.9z"/>
	<path id="XMLID_391_" class="st5" d="M229.1,366.9c0.2,0.1,0.3,0.2,0.5,0.2C229.5,367.1,229.3,367,229.1,366.9
		C229.2,366.9,229.1,366.9,229.1,366.9z"/>
	<path id="XMLID_390_" class="st3" d="M197.5,378.5c0.5,0.5,1,1,1.6,1.5c-0.3,0.4-0.7,0.7-1,1.1c-0.5-0.5-1-1.1-1.5-1.6
		C196.9,379.2,197.2,378.8,197.5,378.5z"/>
	<path id="XMLID_389_" class="st3" d="M167.6,371.6c0.7-0.5,1.3-0.9,2-1.4C168.9,370.6,168.2,371.1,167.6,371.6z"/>
	<path id="XMLID_388_" class="st3" d="M196,377c0.5,0.5,1,1,1.5,1.5c-0.3,0.3-0.6,0.7-1,1c-0.5-0.5-1.1-0.9-1.6-1.4
		C195.3,377.7,195.6,377.4,196,377z"/>
	<path id="XMLID_387_" class="st3" d="M268.1,276.6l0.6,0.4C268.6,276.9,268.1,276.6,268.1,276.6z"/>
	<path id="XMLID_385_" class="st4" d="M511.7,428.8c-3.1-2.5-3.2-4.8-0.7-8.1c3.3-4.5,5.9-9.5,8.3-14.5c0.5-1-0.9-2.9-1.5-4.4
		c-0.7,1.1-1.2,2.3-2,3.3c-3.2,4.7-6.3,9.5-9.9,14c-0.7,0.9-3.3,0.5-5,0.6c0.3-1.5,0-3.5,0.9-4.4c4.1-4.2,6.7-8.6,4.2-14.7
		c-0.6-1.4,0-3.6,0.7-5.2c3.2-6.6,2.2-7.8-5.4-8.6c-3-0.3-9.5,4-8.9-4.4c4.1-2,8.1-4,12.2-6.1c1-0.1,2-0.3,3-0.4
		c2,0.6,4,1.1,5.9,1.7c0.7,0.9,1.4,1.8,2,2.6c0.5,0.7,1,1.4,1.5,2.2l-0.1-0.1c-0.4,2.1-0.3,5.8-1.2,6.1c-8.7,2.6,2.2,1.1,0.8,3.2
		c-1,1.5,1,4.9,1.7,7.4c0.9-0.6,2.3-0.9,2.7-1.7c0.7-1.4,0.7-3.1,1-4.7c0.8,0.1,1.7,0.2,2.5,0.4c-0.9,6.8-1.8,13.6-2.6,20.4
		C522,420.6,516.7,424.6,511.7,428.8z"/>
	<path id="XMLID_384_" class="st2" d="M504.8,376.2c-4.1,2-8.1,4-12.2,6.1c-1.2,0.2-2.5,0.5-3.7,0.4c-1.8-0.2-3.6-0.7-5.5-1.1
		c0.6-1.7,1.1-3.5,1.7-5.2c1.4-1.6,2.9-3.3,4.3-4.9c3.9-4.1,8.3-5.7,13.6-2.6C503.6,371.3,504.2,373.8,504.8,376.2z"/>
	<path id="XMLID_382_" class="st3" d="M457.2,303.7c-1.2,1.8-2.7,3.4-3.6,5.4c-1.7,3.9-3.1,8-6.1,11.8c3.6-10.8,7.9-21.3-5.8-28
		C449.9,292.2,454.4,296.7,457.2,303.7z"/>
	<path id="XMLID_380_" class="st2" d="M406.5,305.6c-1.1,0.4-2.2,0.8-3.2,1.2c0.8-0.9,1.7-1.8,2.5-2.6
		C406,304.6,406.2,305.1,406.5,305.6z"/>
	<path id="XMLID_379_" class="st2" d="M488,451.9c-0.8,0.6-1.7,1.2-2.5,1.7C486.3,453.1,487.2,452.5,488,451.9z"/>
	<path id="XMLID_378_" class="st3" d="M441.8,292.9c-1.2-0.5-2.3-1-3.5-1.5C439.5,291.9,440.6,292.4,441.8,292.9z"/>
	<path id="XMLID_377_" class="st3" d="M517.3,382.3c-0.5-0.7-1-1.4-1.5-2.2C516.3,380.9,516.8,381.6,517.3,382.3z"/>
	<path id="XMLID_376_" class="st2" d="M146,390.2c5.9,3,8.2,13.3,4,18.1c-1.6,1.9-3.3,3.6-5,5.4c-0.9-0.1-1.9-0.3-2.8-0.4
		c-3.7,1.5-7.3,3.1-11,4.6c-0.3-0.5-0.6-1-0.9-1.6c-0.3-10.7-1.8-13-10.8-15.3l0.1,0.1c0-1.2,0-2.4,0.1-3.6c3.1-1,6.2-2.1,9.4-3.1
		c5.4,1,10.3,0.3,14-4.2C144.1,390.2,145.1,390.2,146,390.2z"/>
	<path id="XMLID_375_" class="st3" d="M131.3,417.9c3.7-1.5,7.3-3.1,11-4.6c-0.6,2.5-1.9,5.2-1.5,7.6s2.5,4.5,3.9,6.8
		c-1,0.5-2.5,1.7-3,1.4c-2.4-1.7-4.7-3.7-6.8-5.9C133.4,421.6,132.5,419.6,131.3,417.9z"/>
	<path id="XMLID_374_" class="st3" d="M143.1,390.2c-3.7,4.5-8.6,5.3-14,4.2c5.5-1.9,7.7-4.6,5.1-11.1c-1.5-3.8,0.5-8.9,1-13.4
		c0.9,5.2,1.5,10.5,2.9,15.5C138.6,387.3,141.3,388.6,143.1,390.2z"/>
	<path id="XMLID_373_" class="st3" d="M119.5,401c9,2.3,10.6,4.6,10.8,15.3C126.7,411.2,123.1,406.1,119.5,401z"/>
	<path id="XMLID_372_" class="st2" d="M213.3,327.2c0.1-1.2,0.3-2.3,0.4-3.5c1.8,1.2,3.7,2.5,5.5,3.7c-0.4,2.4,6.3,6.2-1.4,7.1
		c-0.4-0.4-0.7-0.8-1.1-1.2c3.1-4.2-0.2-5.2-3.2-6.4L213.3,327.2z"/>
	<path id="XMLID_371_" class="st3" d="M213.5,327c3,1.1,6.3,2.2,3.2,6.4C215.6,331.2,214.6,329.1,213.5,327z"/>
	<path id="XMLID_370_" class="st3" d="M119.7,397.5c0,1.2,0,2.4-0.1,3.6c-0.9-0.6-1.9-1.3-2.8-1.9
		C117.8,398.6,118.7,398.1,119.7,397.5z"/>
	<path id="XMLID_369_" class="st2" d="M175.4,473.2c5.6-2.1,11.2-4.2,16.8-6.3c1.3,6.4,8.1,5.9,11.7,9.3c1.6,1.5,2.3,3.9,3.5,6
		c-1.8,0.6-3.6,2-5.2,1.8c-7.5-1.2-15-3.1-22.5-4.2C175,479.1,175.2,476.4,175.4,473.2z"/>
	<path id="XMLID_367_" class="st2" d="M272.3,470.2c0.1-0.2,0.1-0.3,0.2-0.5C272.5,469.8,272.4,469.9,272.3,470.2
		C272.3,470.1,272.3,470.2,272.3,470.2z"/>
	<path id="XMLID_366_" class="st2" d="M244.3,232.6c0.3-0.2,0.7-0.5,1-0.7c0,0.6-0.1,1.1-0.1,1.7
		C244.9,233.2,244.6,232.9,244.3,232.6z"/>
	<path id="XMLID_365_" class="st5" d="M242.2,440.4c5.9-8.8,3.1-15.8-0.3-23.1c-0.7-1.4,0.5-3.6,0.8-5.4c1.8,0.9,3.9,1.5,5.5,2.8
		c6.2,4.8,5.6,12.5,6.1,18.9c0.3,3.8-4.1,8.1-6.4,12.1C246.1,444.1,244.3,442.4,242.2,440.4z"/>
	<path id="XMLID_364_" class="st3" d="M249.8,460.1c7-2.9,14.1-5.8,21.1-8.7c0.3,0.8,0.7,1.6,1,2.4c-7.1,2.8-14.1,5.6-21.2,8.5
		C250.4,461.6,250.1,460.9,249.8,460.1z"/>
	<path id="XMLID_363_" class="st3" d="M292.7,436.6c-3.3,3.2-6.7,6.3-10,9.5c-0.6-0.7-1.2-1.4-1.8-2.1c3.6-2.8,7.2-5.7,10.8-8.5
		C292,435.8,292.3,436.2,292.7,436.6z"/>
	<path id="XMLID_362_" class="st3" d="M275.9,447.6c1.2-0.6,2.4-1.2,3.6-1.8c0.1,0.4,0.5,1.1,0.4,1.1c-1.1,0.6-2.3,1.1-3.5,1.7
		C276.2,448.3,276,447.9,275.9,447.6z"/>
	<path id="XMLID_361_" class="st3" d="M293.9,434.7c-0.4,0.6-0.8,1.2-1.2,1.9c-0.4-0.4-0.7-0.8-1.1-1.2c0.6-0.4,1.2-0.8,1.8-1.2
		C293.5,434.3,293.9,434.7,293.9,434.7z"/>
	<path id="XMLID_360_" class="st3" d="M293.5,434.3c0.3-0.3,0.7-0.7,1-1c-0.2,0.5-0.4,1-0.5,1.4
		C293.9,434.7,293.5,434.3,293.5,434.3z"/>
	<path id="XMLID_359_" class="st2" d="M399.5,312.5C399.5,312.5,399.5,312.4,399.5,312.5c2.4-0.8,4.8-2.3,7.1-2.2
		c2.4,0.2,6.7,2.1,6.6,3c-0.3,3.3-1.9,6.5-3.2,9.7c-0.1,0.4-1.8,0.6-2,0.3C405.1,319.7,402.3,316.1,399.5,312.5z"/>
	<path id="XMLID_358_" class="st2" d="M402.6,353c-3.2-0.1-6.5-0.1-9.7-0.2c2.7-0.4,5.4-0.8,8.1-1.1c0.6,0,1.2,0,1.8,0
		C402.9,352.1,402.8,352.6,402.6,353z"/>
	<path id="XMLID_357_" class="st3" d="M402.8,351.7c-0.6,0-1.2,0-1.8,0c0.8-0.4,1.7-0.9,2.5-1.3C403.3,350.8,403,351.2,402.8,351.7z
		"/>
	<path id="XMLID_356_" class="st2" d="M332.4,356.1c3.3,2.3,6.8,4.6,10,7.1c1.1,0.9,1.7,2.5,2.6,3.8c-1.6,0.3-3.5,1.2-4.7,0.6
		c-3.2-1.5-6.1-3.6-9.1-5.5C326.3,359,327.8,357.3,332.4,356.1L332.4,356.1z"/>
	<path id="XMLID_355_" class="st2" d="M283,348.5c0.2,0.1,0.4,0.1,0.6,0.2c0.1,0.1,0.1,0.3,0.1,0.4
		C283.5,348.8,283.3,348.6,283,348.5C283.1,348.4,283,348.5,283,348.5z"/>
	<path id="XMLID_354_" class="st2" d="M277,362.3c-0.2-0.2-0.5-0.4-0.7-0.7c0.2,0,0.4,0,0.5,0.1C276.8,361.9,276.8,362.1,277,362.3
		C276.9,362.3,277,362.3,277,362.3z"/>
	<path id="XMLID_353_" class="st4" d="M393.7,360.5c3.6-0.6,7.3-1.4,10.9-1.9c1.4-0.2,2.9,0.5,4.3,0.8c-1.4,1.4-2.9,3.9-4.3,3.9
		c-3.7,0-7.4-1.1-11.1-1.7C393.6,361.3,393.7,360.9,393.7,360.5z"/>
	<path id="XMLID_352_" class="st2" d="M398.4,384.3c0.6,0.3,1.1,0.7,1.7,1C399.5,385,398.9,384.7,398.4,384.3z"/>
</g>
</svg>
