<?xml version="1.0" encoding="utf-8"?>
<!-- Generator: Adobe Illustrator 19.0.0, SVG Export Plug-In . SVG Version: 6.00 Build 0)  -->
<svg version="1.1" id="Calque_1" xmlns="http://www.w3.org/2000/svg" xmlns:xlink="http://www.w3.org/1999/xlink" x="0px" y="0px"
	 viewBox="155 389 429 124" style="enable-background:new 155 389 429 124;" xml:space="preserve">
<style type="text/css">
	.st0{fill:#AD5B36;}
	.st1{fill:#FDD99F;}
	.st2{fill:#E6B368;}
	.st3{fill:none;stroke:#000000;stroke-width:0.5;stroke-miterlimit:10;}
</style>
<ellipse id="XMLID_1_" class="st0" cx="371.1" cy="460.5" rx="195.9" ry="18"/>
<path id="XMLID_5_" class="st1" d="M582,456l-0.3-1.5c-1.7-8.1-6.6-25.8-22.3-38.4c-10.2-8.2-21.1-11.3-29.5-13.6
	c-12-3.3-22.5-3.9-29.8-3.8L371.5,398l-129.4,0.7c-7.3-0.1-17.8,0.4-29.9,3.7c-8.4,2.3-19.4,5.3-29.6,13.5
	c-15.7,12.6-20.7,30.4-22.4,38.5L160,456h388H582z"/>
<path id="XMLID_18_" class="st2" d="M166.6,465.5c3.4,6.7,8.5,13.5,16,19.5c10.2,8.2,21.2,11,29.6,13.3c12.1,3.3,22.6,3.7,29.9,3.6
	l129.4,0.7l128.8-0.8c7.3,0.1,17.7-0.5,29.8-3.8c8.4-2.3,19.3-4.3,29.5-12.5c7.9-6.3,13-13,16.4-20L166.6,465.5z"/>
<line id="XMLID_9_" class="st3" x1="246" y1="398.7" x2="191.3" y2="433.3"/>
<line id="XMLID_12_" class="st3" x1="301" y1="398.7" x2="246.3" y2="433.3"/>
<line id="XMLID_13_" class="st3" x1="359" y1="397.7" x2="304.3" y2="432.3"/>
<line id="XMLID_14_" class="st3" x1="412" y1="398.7" x2="357.3" y2="433.3"/>
<line id="XMLID_15_" class="st3" x1="467" y1="398.7" x2="412.3" y2="433.3"/>
<line id="XMLID_16_" class="st3" x1="520" y1="400.7" x2="465.3" y2="435.3"/>
<line id="XMLID_17_" class="st3" x1="553.7" y1="411.9" x2="518.3" y2="434.3"/>
</svg>
