<?xml version="1.0" encoding="utf-8"?>
<!-- Generator: Adobe Illustrator 19.0.0, SVG Export Plug-In . SVG Version: 6.00 Build 0)  -->
<svg version="1.1" id="Calque_1" xmlns="http://www.w3.org/2000/svg" xmlns:xlink="http://www.w3.org/1999/xlink" x="0px" y="0px"
	 viewBox="217 205 215 308" style="enable-background:new 217 205 215 308;" xml:space="preserve">
<style type="text/css">
	.st0{fill:#E92424;}
	.st1{fill:#FCDD53;}
</style>
<path id="XMLID_46_" class="st0" d="M339,377.3c-0.4-26.1-0.8-52.1-1.1-78.2c-0.1-10.7-0.1-21.5-0.1-32.2c0-4.9,1.3-6.7,6-8.2
	c2.9-0.9,6-1.4,9-2c1.7-0.3,2.5-0.9,2.4-2.8c-0.2-2.2,0-4.4,0-6.6c0-2.7,1.4-4.4,4-4.8c3.7-0.7,7.4-1.4,11.1-1.7
	c2.4-0.2,3-1.1,3.2-3.3c1-8.8,2.1-17.5,3.2-26.3c0.2-1.6,0.2-3.4,2.6-3.4c2.5-0.1,3,1.5,3.3,3.5c1.3,8.8,2.7,17.6,3.9,26.4
	c0.3,2.2,1.1,2.8,3.2,3c3.4,0.2,6.9,0.7,10.3,1.3c3.7,0.7,4.5,1.6,4.7,5.3c0.2,2.1,0.3,4.2,0.3,6.3c0,1.7,0.6,2.3,2.2,2.7
	c3.4,0.7,6.7,1.6,10,2.6c3.8,1.3,4.7,2.5,4.7,6.5c0,23.6,0,47.2,0,70.8c0,13.7,0,27.4-0.2,41.1c-0.4,22.1-1.1,44.3-1.5,66.4
	c-0.1,7.8,0.5,15.5,0.3,23.3c-0.2,7.9-0.6,15.9-1.7,23.8c-0.5,3.8-3.8,6.5-7.3,7.8c-4.5,1.7-9.3,3-14.1,3.7
	c-14.6,2.1-29.2,1.9-43.8-1.2c-0.4-0.1-0.8-0.1-1.1-0.3c-11-3.2-12.1-4.8-12.2-16c-0.2-25.8-0.6-51.6-0.9-77.4
	c-0.1-10.1,0-20.1,0-30.2C339.1,377.3,339.1,377.3,339,377.3z"/>
<path id="XMLID_1_" class="st1" d="M229,379.3c-0.4-26.1-0.8-52.1-1.1-78.2c-0.1-10.7-0.1-21.5-0.1-32.2c0-4.9,1.3-6.7,6-8.2
	c2.9-0.9,6-1.4,9-2c1.7-0.3,2.5-0.9,2.4-2.8c-0.2-2.2,0-4.4,0-6.6c0-2.7,1.4-4.4,4-4.8c3.7-0.7,7.4-1.4,11.1-1.7
	c2.4-0.2,3-1.1,3.2-3.3c1-8.8,2.1-17.5,3.2-26.3c0.2-1.6,0.2-3.4,2.6-3.4c2.5-0.1,3,1.5,3.3,3.5c1.3,8.8,2.7,17.6,3.9,26.4
	c0.3,2.2,1.1,2.8,3.2,3c3.4,0.2,6.9,0.7,10.3,1.3c3.7,0.7,4.5,1.6,4.7,5.3c0.2,2.1,0.3,4.2,0.3,6.3c0,1.7,0.6,2.3,2.2,2.7
	c3.4,0.7,6.7,1.6,10,2.6c3.8,1.3,4.7,2.5,4.7,6.5c0,23.6,0,47.2,0,70.8c0,13.7,0,27.4-0.2,41.1c-0.4,22.1-1.1,44.3-1.5,66.4
	c-0.1,7.8,0.5,15.5,0.3,23.3c-0.2,7.9-0.6,15.9-1.7,23.8c-0.5,3.8-3.8,6.5-7.3,7.8c-4.5,1.7-9.3,3-14.1,3.7
	c-14.6,2.1-29.2,1.9-43.8-1.2c-0.4-0.1-0.8-0.1-1.1-0.3c-11-3.2-12.1-4.8-12.2-16c-0.2-25.8-0.6-51.6-0.9-77.4
	c-0.1-10.1,0-20.1,0-30.2C229.1,379.3,229.1,379.3,229,379.3z"/>
</svg>
