<?xml version="1.0" encoding="iso-8859-1"?>
<!-- Generator: Adobe Illustrator 19.0.0, SVG Export Plug-In . SVG Version: 6.00 Build 0)  -->
<svg version="1.1" id="Layer_1" xmlns="http://www.w3.org/2000/svg" xmlns:xlink="http://www.w3.org/1999/xlink" x="0px" y="0px"
	 viewBox="0 0 512 512" style="enable-background:new 0 0 512 512;" xml:space="preserve">
<path style="fill:#D07400;" d="M337.484,451.595c12.435-7.227,18.66-16.682,18.686-26.153l0.088-30.94L512,304.637l-0.139-47.828
	L272.792,118.781l-169.141,98.294c-25.29-11.346-61.732-10.308-84.828,3.114c-12.475,7.249-18.694,16.742-18.681,26.244
	c0-0.031-0.003-0.062-0.003-0.093L0,293.686c-0.027,9.593,6.306,19.202,18.985,26.523l227.57,131.388
	C271.745,466.139,312.453,466.141,337.484,451.595z"/>
<path style="fill:#FF9911;" d="M0.139,246.338L0,293.686c-0.027,9.593,6.306,19.202,18.985,26.523l0.139-47.347
	C6.445,265.54,0.112,255.932,0.139,246.338z"/>
<polygon style="fill:#D07400;" points="342.72,355.102 342.581,402.45 512,304.637 511.861,256.808 "/>
<polygon style="fill:#F18700;" points="19.124,272.86 18.985,320.208 246.555,451.595 246.694,404.248 "/>
<path style="fill:#FF9911;" d="M356.17,425.443l0.139-47.347c-0.027,9.47-6.252,18.926-18.686,26.153
	c-25.031,14.546-65.739,14.544-90.928,0l-0.139,47.347c25.189,14.543,65.898,14.546,90.929,0
	C349.919,444.369,356.143,434.914,356.17,425.443z"/>
<path style="fill:#FFA834;" d="M246.694,404.248c25.189,14.543,65.898,14.546,90.928,0c23.095-13.422,24.768-34.534,5.098-49.146
	l169.141-98.294L272.792,118.781l-169.141,98.294c-25.29-11.346-61.732-10.308-84.827,3.114
	c-25.031,14.546-24.894,38.126,0.301,52.672L246.694,404.248z"/>
<path style="fill:#FFB657;" d="M272.81,132.397L104.344,230.3l-5.516-2.474c-22.056-9.895-54.598-8.775-74.084,2.551
	c-5.352,3.11-17.144,11.479-11.073,21.994c2.118,3.669,6.041,7.225,11.344,10.288l227.57,131.388
	c21.521,12.425,57.752,12.432,79.118,0.016c5.352-3.11,17.146-11.48,11.074-21.996c-1.505-2.606-3.887-5.13-7.082-7.504
	L321.342,353.9l167.012-97.059L272.81,132.397z"/>
<path style="fill:#C60024;" d="M131.782,179.173c17.147-9.621,37.003-19.307,58.037-23.857c19.788-4.281,41.575,6.277,62.424,6.461
	c20.905,0.184,44.365-16.239,64.011-11.59c21.014,4.973,36.477,25.921,53.295,35.974c20.158,12.051,129.884,48.095,117.894,74.183
	c-8.655,18.829-67.092,7.742-77.357,26.126c-8.181,14.651-13.582,38.355-33.991,49.807c-17.147,9.621-44.5,10.983-74.663,25.953
	c-18.136,9.001-38.205,26.108-59.052,25.925c-20.905-0.184-41.455-32.187-58.94-42.282c-22.008-12.706-42.932-6.188-59.749-16.242
	c-20.158-12.051-34.324-27.256-41.7-42.33c-9.108-18.614-60.584-9.464-70.014-28.29C-9.484,216.17,111.373,190.625,131.782,179.173z
	"/>
<path style="fill:#D07400;" d="M337.484,382.31c12.435-7.227,18.66-16.682,18.686-26.153l0.088-30.94L512,235.351l-0.139-47.828
	L272.792,49.496l-169.141,98.294c-25.29-11.346-61.732-10.308-84.828,3.114c-12.475,7.249-18.694,16.742-18.681,26.243
	c0-0.031-0.003-0.062-0.003-0.093L0,224.401c-0.027,9.593,6.306,19.202,18.985,26.523l227.57,131.388
	C271.745,396.854,312.453,396.856,337.484,382.31z"/>
<path style="fill:#FF9911;" d="M0.139,177.053L0,224.401c-0.027,9.593,6.306,19.202,18.985,26.523l0.139-47.347
	C6.445,196.255,0.112,186.646,0.139,177.053z"/>
<polygon style="fill:#D07400;" points="342.72,285.817 342.581,333.165 512,235.351 511.861,187.523 "/>
<polygon style="fill:#F18700;" points="19.124,203.575 18.985,250.923 246.555,382.31 246.694,334.963 "/>
<path style="fill:#FF9911;" d="M356.17,356.158l0.139-47.347c-0.027,9.47-6.252,18.926-18.686,26.153
	c-25.031,14.546-65.739,14.544-90.928,0l-0.139,47.347c25.189,14.543,65.898,14.546,90.929,0
	C349.919,375.084,356.143,365.628,356.17,356.158z"/>
<path style="fill:#FFA834;" d="M246.694,334.963c25.189,14.543,65.898,14.546,90.928,0c23.095-13.422,24.768-34.534,5.098-49.146
	l169.141-98.294L272.792,49.496l-169.141,98.294c-25.29-11.346-61.732-10.308-84.827,3.114
	c-25.031,14.546-24.894,38.126,0.301,52.672L246.694,334.963z"/>
<path style="fill:#FFB657;" d="M272.81,63.112l-168.467,97.902l-5.516-2.474c-22.056-9.895-54.598-8.775-74.084,2.551
	c-5.352,3.11-17.144,11.479-11.073,21.994c2.118,3.669,6.041,7.225,11.344,10.288l227.57,131.388
	c21.521,12.425,57.752,12.432,79.118,0.016c5.352-3.11,17.146-11.48,11.074-21.996c-1.505-2.606-3.887-5.13-7.082-7.504
	l-14.353-10.661l167.012-97.058L272.81,63.112z"/>
<path style="fill:#FFA834;" d="M167.805,137.651c12.431-6.976,26.827-13.996,42.075-17.295c14.346-3.103,30.141,4.551,45.256,4.683
	c15.156,0.133,32.164-11.773,46.407-8.402c15.235,3.605,26.445,18.791,38.637,26.08c14.614,8.736,35.656,12.263,41.003,23.192
	c6.603,13.495-10.431,28.973-17.873,42.301c-5.931,10.621-3.589,35.034-18.384,43.337c-12.431,6.976-39.137,1.963-54.386,5.262
	c-14.346,3.103-31.81,10.746-46.924,10.613c-15.156-0.133-23.007-20.067-37.25-23.438c-15.235-3.605-29.806,5.287-41.998-2.002
	c-14.614-8.736-15.887-25.391-21.234-36.32c-6.603-13.495-17.214-26.754-9.772-40.082
	C139.294,154.959,153.01,145.953,167.805,137.651z"/>
<g>
	<polygon style="fill:#FED322;" points="266.705,126.519 209.55,159.734 209.363,194.373 267.079,227.587 324.046,194.372 
		324.234,159.734 	"/>
	<polygon style="fill:#FED322;" points="324.234,159.734 324.046,194.372 267.079,227.587 267.079,192.948 	"/>
</g>
<polygon style="fill:#FEDA44;" points="267.079,192.948 267.079,227.587 209.363,194.373 209.55,159.734 "/>
<polygon style="fill:#FFE577;" points="324.234,159.734 267.079,192.948 209.55,159.734 266.705,126.519 "/>
<g>
</g>
<g>
</g>
<g>
</g>
<g>
</g>
<g>
</g>
<g>
</g>
<g>
</g>
<g>
</g>
<g>
</g>
<g>
</g>
<g>
</g>
<g>
</g>
<g>
</g>
<g>
</g>
<g>
</g>
</svg>
