<?xml version="1.0" encoding="iso-8859-1"?>
<!-- Generator: Adobe Illustrator 19.0.0, SVG Export Plug-In . SVG Version: 6.00 Build 0)  -->
<svg version="1.1" id="Layer_1" xmlns="http://www.w3.org/2000/svg" xmlns:xlink="http://www.w3.org/1999/xlink" x="0px" y="0px"
	 viewBox="0 0 512 512" style="enable-background:new 0 0 512 512;" xml:space="preserve">
<polygon style="fill:#FF3502;" points="177.989,77.552 110.055,136.07 110.055,401.678 301.137,512 401.945,472.462 
	401.945,206.853 "/>
<polygon style="fill:#D8D8DA;" points="401.945,206.853 301.137,246.391 110.055,136.07 177.989,77.552 "/>
<g>
	<polygon style="fill:#DDB201;" points="169.522,0 135.842,19.573 135.842,315.792 169.742,335.364 203.422,315.791 203.422,19.573 
			"/>
	<polygon style="fill:#DDB201;" points="203.422,19.573 203.422,315.791 169.742,335.364 169.742,39.145 	"/>
</g>
<polygon style="fill:#EEBF00;" points="169.742,39.145 169.742,335.364 135.842,315.792 135.842,19.573 "/>
<polygon style="fill:#FECE00;" points="203.422,19.573 169.742,39.145 135.842,19.573 169.522,0 "/>
<g>
	<polygon style="fill:#DDB201;" points="230.344,27.587 196.664,47.16 196.664,343.378 230.565,362.951 264.245,343.378 
		264.245,47.16 	"/>
	<polygon style="fill:#DDB201;" points="264.245,47.16 264.245,343.378 230.565,362.951 230.565,66.732 	"/>
</g>
<polygon style="fill:#EEBF00;" points="230.565,66.732 230.565,362.951 196.664,343.379 196.664,47.16 "/>
<polygon style="fill:#FECE00;" points="264.245,47.16 230.565,66.732 196.664,47.16 230.344,27.587 "/>
<g>
	<polygon style="fill:#DDB201;" points="288.254,66.732 254.574,86.305 254.574,382.523 288.474,402.096 322.154,382.523 
		322.154,86.304 	"/>
	<polygon style="fill:#DDB201;" points="322.154,86.304 322.154,382.523 288.474,402.096 288.474,105.877 	"/>
</g>
<polygon style="fill:#EEBF00;" points="288.474,105.877 288.474,402.096 254.574,382.523 254.574,86.305 "/>
<polygon style="fill:#FECE00;" points="322.154,86.304 288.474,105.877 254.574,86.305 288.254,66.732 "/>
<g>
	<polygon style="fill:#DDB201;" points="348.979,105.868 315.3,125.44 315.3,421.658 349.2,441.231 382.881,421.658 
		382.881,125.439 	"/>
	<polygon style="fill:#DDB201;" points="382.881,125.439 382.881,421.658 349.2,441.231 349.2,145.012 	"/>
</g>
<polygon style="fill:#EEBF00;" points="349.2,145.012 349.2,441.231 315.3,421.658 315.3,125.44 "/>
<polygon style="fill:#FECE00;" points="382.881,125.439 349.2,145.012 315.3,125.44 348.979,105.868 "/>
<g>
	<polygon style="fill:#DDB201;" points="169.632,50.847 135.952,70.42 135.952,366.639 169.852,386.211 203.533,366.638 
		203.533,70.42 	"/>
	<polygon style="fill:#DDB201;" points="203.533,70.42 203.533,366.638 169.852,386.211 169.852,89.993 	"/>
</g>
<polygon style="fill:#EEBF00;" points="169.852,89.993 169.852,386.211 135.952,366.639 135.952,70.42 "/>
<polygon style="fill:#FECE00;" points="203.533,70.42 169.852,89.993 135.952,70.42 169.632,50.847 "/>
<g>
	<polygon style="fill:#DDB201;" points="230.344,92.695 196.664,112.267 196.664,408.487 230.565,428.058 264.245,408.486 
		264.245,112.267 	"/>
	<polygon style="fill:#DDB201;" points="264.245,112.267 264.245,408.486 230.565,428.058 230.565,131.84 	"/>
</g>
<polygon style="fill:#EEBF00;" points="230.565,131.84 230.565,428.058 196.664,408.487 196.664,112.267 "/>
<polygon style="fill:#FECE00;" points="264.245,112.267 230.565,131.84 196.664,112.267 230.344,92.695 "/>
<g>
	<polygon style="fill:#DDB201;" points="297.924,131.84 264.245,151.413 264.245,447.631 298.145,467.204 331.826,447.631 
		331.826,151.412 	"/>
	<polygon style="fill:#DDB201;" points="331.826,151.412 331.826,447.631 298.145,467.204 298.145,170.985 	"/>
</g>
<polygon style="fill:#EEBF00;" points="298.145,170.985 298.145,467.204 264.245,447.631 264.245,151.413 "/>
<polygon style="fill:#FECE00;" points="331.826,151.412 298.145,170.985 264.245,151.413 297.924,131.84 "/>
<g>
	<polygon style="fill:#CD2A01;" points="301.137,246.391 110.055,136.07 110.055,401.678 301.137,512 401.945,472.462 
		401.945,206.853 	"/>
	<polygon style="fill:#CD2A01;" points="401.945,206.853 401.945,472.462 301.137,512 301.137,246.391 	"/>
</g>
<polygon style="fill:#FF3502;" points="301.137,246.391 301.137,512 110.055,401.678 110.055,136.07 "/>
<g>
</g>
<g>
</g>
<g>
</g>
<g>
</g>
<g>
</g>
<g>
</g>
<g>
</g>
<g>
</g>
<g>
</g>
<g>
</g>
<g>
</g>
<g>
</g>
<g>
</g>
<g>
</g>
<g>
</g>
</svg>
