<?xml version="1.0" encoding="iso-8859-1"?>
<!-- Generator: Adobe Illustrator 19.0.0, SVG Export Plug-In . SVG Version: 6.00 Build 0)  -->
<svg version="1.1" id="Layer_1" xmlns="http://www.w3.org/2000/svg" xmlns:xlink="http://www.w3.org/1999/xlink" x="0px" y="0px"
	 viewBox="0 0 512.006 512.006" style="enable-background:new 0 0 512.006 512.006;" xml:space="preserve">
<path style="fill:#FFA834;" d="M511.977,145.653c-0.031-1.007-0.085-2.127-0.146-3.021c-0.053-0.771-0.172-1.796-0.283-2.561
	c-0.045-0.307-0.101-0.698-0.177-1.162c-0.188-1.161-0.491-2.785-1.01-4.728c-0.103-0.389-0.216-0.79-0.339-1.204
	c-0.107-0.359-0.234-0.777-0.368-1.193c-0.134-0.416-0.272-0.831-0.399-1.183c-0.308-0.854-0.712-1.949-1.094-2.835
	c-0.046-0.107-0.093-0.223-0.139-0.322c-0.154-0.336-0.323-0.699-0.5-1.074c-0.356-0.751-0.748-1.553-1.124-2.295
	c-0.188-0.371-0.372-0.726-0.544-1.052c-0.112-0.21-0.237-0.436-0.371-0.668c-0.268-0.464-0.566-0.956-0.848-1.412
	c-0.141-0.228-0.278-0.447-0.403-0.649c-0.24-0.386-0.53-0.83-0.826-1.269c-0.298-0.439-0.603-0.872-0.875-1.236
	c-0.216-0.289-0.455-0.601-0.704-0.923c-0.499-0.643-1.045-1.327-1.558-1.958c-0.257-0.316-0.506-0.619-0.738-0.897
	c-0.007-0.009-0.475-0.55-1.192-1.322c-0.717-0.772-1.683-1.776-2.69-2.714c-0.788-0.734-1.805-1.615-2.73-2.398
	c-0.308-0.261-0.606-0.51-0.882-0.74c-0.611-0.508-1.462-1.14-2.1-1.611c-0.315-0.232-0.682-0.499-1.054-0.763
	c-0.372-0.263-0.746-0.522-1.074-0.735c-1.217-0.793-2.863-1.818-4.109-2.566c-0.072-0.042-0.147-0.076-0.22-0.116l0,0
	c0.073,0.039,0.147,0.074,0.219,0.115c-0.479-0.276-0.932-0.53-1.357-0.764c-1.277-0.701-2.304-1.217-3.028-1.574
	c-0.89-0.438-1.741-0.832-2.458-1.153c-0.717-0.321-1.299-0.571-1.653-0.719c-0.236-0.099-0.371-0.154-0.376-0.156
	c-0.649-0.262-1.647-0.666-2.664-1.052c-0.61-0.232-1.228-0.458-1.782-0.643c-0.666-0.223-1.549-0.536-2.219-0.74
	c-0.564-0.171-1.033-0.315-1.433-0.435c-0.398-0.12-0.725-0.219-1.004-0.303c-0.093-0.027-0.181-0.053-0.264-0.078
	c-0.167-0.049-0.316-0.092-0.455-0.132c-0.138-0.04-0.265-0.075-0.39-0.109c-0.186-0.05-0.363-0.097-0.555-0.146
	c-0.127-0.032-0.262-0.066-0.411-0.103c-1.003-0.25-1.72-0.427-2.288-0.566c-0.568-0.139-0.99-0.236-1.401-0.325
	c-0.275-0.06-0.545-0.115-0.854-0.174c-0.171-0.033-0.357-0.071-0.551-0.111c-0.386-0.078-0.799-0.163-1.186-0.237
	c-0.193-0.037-0.379-0.071-0.552-0.101c-1.29-0.222-2.131-0.365-2.8-0.473c-0.525-0.085-0.947-0.146-1.397-0.207
	c-0.125-0.017-0.252-0.033-0.385-0.05c-0.69-0.087-1.607-0.214-2.298-0.284c-0.381-0.039-0.716-0.072-1.01-0.101
	c-0.59-0.06-1.026-0.102-1.379-0.136c-0.883-0.085-1.249-0.109-2.227-0.174c-0.108-0.007-0.242-0.017-0.403-0.026
	c-0.482-0.03-1.195-0.073-2.091-0.111c-0.598-0.025-1.277-0.049-2.024-0.066c-0.747-0.017-1.561-0.027-2.428-0.027
	c-0.164,0-0.35,0.001-0.554,0.002c-0.409,0.003-0.892,0.008-1.437,0.019c-1.088,0.021-2.415,0.064-3.857,0.143
	c-0.361,0.02-0.728,0.043-1.1,0.067c-0.368,0.024-0.714,0.049-1.044,0.074c-0.658,0.05-1.25,0.1-1.807,0.154
	c-1.392,0.133-2.569,0.281-4.066,0.469c-0.307,0.039-0.583,0.075-0.864,0.116c-0.14,0.02-0.282,0.041-0.43,0.064
	c-0.445,0.068-0.946,0.15-1.632,0.267c-0.458,0.077-0.998,0.17-1.659,0.284c-0.173,0.03-0.359,0.065-0.554,0.101
	c-0.485,0.093-1.004,0.202-1.466,0.294c-0.092,0.019-0.19,0.039-0.276,0.055c-0.309,0.061-0.58,0.116-0.856,0.176
	c-0.551,0.119-1.117,0.255-2.028,0.481c-0.456,0.113-0.998,0.249-1.668,0.416c-0.891,0.223-1.255,0.322-2.683,0.754
	c-0.476,0.144-1.07,0.326-1.841,0.561c-0.168,0.051-0.349,0.11-0.536,0.171c-0.562,0.185-1.183,0.404-1.681,0.573
	c-0.366,0.123-0.752,0.261-1.146,0.406c-0.787,0.292-1.601,0.612-2.322,0.903c-0.361,0.145-0.698,0.282-0.997,0.403
	c-0.015,0.006-0.107,0.044-0.233,0.096c-0.317,0.133-0.945,0.399-1.8,0.786c-0.717,0.325-1.581,0.728-2.521,1.194
	c-0.325,0.161-0.675,0.341-1.035,0.53c-1.083,0.567-2.271,1.227-3.219,1.758c-0.001,0.001-0.003,0.001-0.004,0.002
	c-67.82,39.413-135.635,78.823-203.455,118.235c1.061-0.616,2.179-1.192,3.337-1.736l-65.706,38.185l-19.597,11.388l-19.755,11.48
	c-19.94,11.588-39.877,23.175-59.817,34.763h-0.001c-0.521,0.304-1.182,0.696-1.946,1.173c-0.509,0.319-1.064,0.674-1.654,1.067
	c-0.295,0.196-0.599,0.402-0.909,0.616c-0.622,0.429-1.274,0.895-1.942,1.396c-0.661,0.495-1.539,1.162-2.17,1.697
	c-0.821,0.697-1.839,1.578-2.736,2.393c-0.299,0.272-0.584,0.536-0.843,0.784c-2.163,2.065-4.005,4.283-4.021,4.303
	c-0.453,0.564-0.976,1.23-1.49,1.9c-0.514,0.671-1.021,1.348-1.443,1.936c-0.14,0.195-0.287,0.41-0.438,0.634
	c-0.301,0.449-0.613,0.939-0.901,1.398c-0.143,0.229-0.281,0.45-0.408,0.655c-0.133,0.214-0.273,0.447-0.417,0.692
	c-0.432,0.732-0.889,1.558-1.227,2.234c-0.165,0.331-0.34,0.693-0.518,1.069c-0.535,1.13-1.101,2.398-1.535,3.42
	c-0.104,0.246-0.21,0.514-0.316,0.795c-0.317,0.842-0.63,1.794-0.879,2.555c-0.059,0.179-0.118,0.373-0.179,0.576
	c-0.12,0.405-0.241,0.843-0.353,1.251c-0.056,0.204-0.111,0.4-0.161,0.581c-0.075,0.267-0.149,0.558-0.222,0.862
	c-0.216,0.91-0.416,1.933-0.574,2.75c-0.109,0.562-0.216,1.268-0.304,1.906c-0.029,0.212-0.056,0.417-0.08,0.606
	c-0.034,0.27-0.067,0.561-0.098,0.865c-0.093,0.911-0.17,1.927-0.222,2.739c-0.011,0.191-0.021,0.398-0.027,0.613
	c-0.02,0.642-0.022,1.355-0.036,1.927c0,0.003,0,0.007,0,0.011L0,365.391c0.019,1.195,0.072,2.789,0.169,3.98
	c0.091,1.118,0.266,2.605,0.456,3.71c0.064,0.373,0.14,0.777,0.223,1.195c0.166,0.837,0.362,1.732,0.557,2.562
	c0.098,0.415,0.195,0.814,0.288,1.182c0.066,0.257,0.142,0.535,0.225,0.821c0.25,0.861,0.56,1.809,0.827,2.559
	c0.31,0.872,1.176,3.306,2.706,6.276c0.218,0.424,0.451,0.86,0.697,1.303c0.243,0.438,0.483,0.856,0.719,1.255
	c1.647,2.789,3.075,4.628,4.062,5.898c0.133,0.17,0.278,0.353,0.429,0.542c0.457,0.566,0.979,1.185,1.418,1.66
	c0.121,0.132,0.252,0.276,0.389,0.424c0.272,0.299,0.563,0.62,0.838,0.914c0.138,0.147,0.271,0.288,0.396,0.418
	c0.575,0.592,1.349,1.376,1.957,1.934c0.264,0.242,0.553,0.504,0.853,0.773c0.602,0.539,1.254,1.112,1.871,1.632
	c0.308,0.26,0.608,0.508,0.889,0.731c1.513,1.209,2.054,1.589,4.072,3.003c0.202,0.142,0.426,0.295,0.669,0.455
	c0.484,0.321,1.035,0.673,1.615,1.031c0.29,0.18,0.587,0.361,0.885,0.539c0.488,0.294,0.976,0.579,1.451,0.851
	c0.267,0.154,0.526,0.299,0.777,0.439c0.395,0.219,0.774,0.425,1.106,0.597c0.141,0.072,0.253,0.131,0.379,0.195
	c0.396,0.205,0.748,0.386,1.038,0.534c0.765,0.391,1.241,0.627,1.868,0.918c0.313,0.146,0.665,0.306,1.107,0.507
	c2.117,0.959,3.862,1.625,4.436,1.844c1.143,0.437,2.25,0.828,3.273,1.169c0.511,0.171,1.002,0.33,1.466,0.476
	c1.392,0.44,2.543,0.767,3.302,0.974c0.253,0.069,0.462,0.124,0.622,0.166s0.27,0.07,0.324,0.084
	c1.926,0.483,3.197,0.801,4.543,1.066c0.686,0.135,1.599,0.33,2.288,0.448c0.343,0.059,0.714,0.121,1.1,0.186
	c0.772,0.128,1.601,0.262,2.374,0.38c0.387,0.06,0.76,0.114,1.103,0.163c1.11,0.157,2.277,0.29,3.405,0.402
	c0.451,0.045,0.897,0.086,1.328,0.124c0.864,0.075,1.678,0.137,2.392,0.185c0.892,0.06,1.627,0.097,2.107,0.113
	c1.042,0.034,2.345,0.084,3.517,0.099c0.391,0.005,0.767,0.007,1.115,0.003c0.348-0.004,0.753-0.006,1.159-0.01
	c0.405-0.003,0.811-0.008,1.159-0.016c0.695-0.016,1.621-0.054,2.315-0.077c0.173-0.005,0.362-0.014,0.557-0.023
	c0.391-0.019,0.811-0.044,1.201-0.069c0.195-0.013,0.383-0.025,0.557-0.037c1.54-0.102,1.54-0.102,4.617-0.413
	c0.346-0.034,0.747-0.085,1.149-0.136c0.402-0.051,0.804-0.106,1.148-0.148c1.299-0.161,2.677-0.4,4.586-0.731
	c0.02-0.003,2.053-0.364,4.588-0.961c0.68-0.16,1.47-0.358,2.258-0.566c0.394-0.103,0.788-0.209,1.166-0.313
	c0.379-0.103,0.743-0.207,1.078-0.303c0.511-0.147,1.009-0.298,1.495-0.447c0.485-0.15,0.957-0.301,1.413-0.451
	c2.28-0.75,4.173-1.48,5.453-2.003c0.256-0.104,0.487-0.202,0.693-0.288c0.779-0.33,2.402-1.016,4.464-2.039
	c1.299-0.645,2.993-1.581,4.258-2.288c0,0,0.001,0,0.001-0.001c19.943-11.589,364.991-212.317,364.991-212.317h0.001
	c0.521-0.304,1.182-0.696,1.946-1.173c1.273-0.795,2.832-1.828,4.506-3.08c0.661-0.495,1.539-1.162,2.17-1.697
	c0.548-0.464,1.183-1.01,1.811-1.565c0.628-0.554,1.249-1.116,1.768-1.612c1.622-1.549,3.064-3.184,3.691-3.913
	c0.209-0.243,0.327-0.386,0.331-0.391c0.908-1.13,2.089-2.659,2.933-3.836c0.56-0.782,1.24-1.869,1.745-2.687
	c0.529-0.857,1.194-2.025,1.644-2.926c0.33-0.662,0.699-1.444,1.057-2.231c0.358-0.786,0.706-1.578,0.996-2.259
	c0.416-0.982,0.862-2.336,1.195-3.35c0.059-0.179,0.118-0.373,0.179-0.576c0.12-0.405,0.241-0.843,0.354-1.251
	c0.056-0.204,0.111-0.4,0.161-0.581c0.075-0.266,0.149-0.558,0.222-0.862c0.144-0.607,0.281-1.263,0.402-1.877
	c0.061-0.306,0.118-0.601,0.17-0.874c0.144-0.749,0.288-1.756,0.386-2.513c0.137-1.077,0.252-2.521,0.32-3.605
	c0.014-0.211,0.022-0.444,0.029-0.683c0.002-0.085,0.004-0.171,0.006-0.257c0.004-0.178,0.007-0.352,0.01-0.53
	c0-0.007,0-0.014,0-0.021c0.014-0.353,0.02-0.706,0.018-1.061l0.018-6.462C511.995,146.313,511.987,145.989,511.977,145.653z
	 M28.095,313.507c0.014-0.008,0.028-0.015,0.042-0.022c-0.015,0.008-0.029,0.016-0.045,0.024
	C28.093,313.507,28.094,313.507,28.095,313.507z"/>
<path style="fill:#F18700;" d="M490.642,176.713l-165.007,95.891c0.001,0.068,0.004,0.137,0.003,0.205L125.651,389.03l0,0
	c-14.305,8.313-33.09,12.47-51.899,12.47s-37.64-4.156-52.038-12.468S0.079,369.825,0.018,358.93c0-0.003,0-0.007,0-0.011
	c0,0.003,0,0.007,0,0.011L0,365.391c0.019,1.195,0.072,2.789,0.169,3.98c0.091,1.118,0.266,2.605,0.456,3.71
	c0.064,0.373,0.14,0.777,0.223,1.195c0.166,0.837,0.362,1.732,0.557,2.562c0.098,0.415,0.195,0.814,0.288,1.182
	c0.066,0.257,0.142,0.535,0.225,0.821c0.25,0.861,0.56,1.809,0.827,2.559c0.31,0.872,1.176,3.306,2.706,6.276
	c0.218,0.424,0.451,0.86,0.697,1.303c0.243,0.438,0.483,0.856,0.719,1.255c1.647,2.789,3.075,4.628,4.062,5.898
	c0.133,0.17,0.278,0.353,0.429,0.542c0.457,0.566,0.979,1.185,1.418,1.66c0.121,0.132,0.252,0.276,0.389,0.424
	c0.272,0.299,0.563,0.62,0.838,0.914c0.138,0.147,0.271,0.288,0.396,0.418c0.575,0.592,1.349,1.376,1.957,1.934
	c0.264,0.242,0.553,0.504,0.853,0.773c0.602,0.539,1.254,1.112,1.871,1.632c0.308,0.26,0.608,0.508,0.889,0.731
	c1.513,1.209,2.054,1.589,4.072,3.003c0.202,0.142,0.426,0.295,0.669,0.455c0.484,0.321,1.035,0.673,1.615,1.031
	c0.29,0.18,0.587,0.361,0.885,0.539c0.488,0.294,0.976,0.579,1.451,0.851c0.267,0.154,0.526,0.299,0.777,0.439
	c0.395,0.219,0.774,0.425,1.106,0.597c0.141,0.072,0.253,0.131,0.379,0.195c0.396,0.205,0.748,0.386,1.038,0.534
	c0.765,0.391,1.241,0.627,1.868,0.918c0.313,0.146,0.665,0.306,1.107,0.507c2.117,0.959,3.862,1.625,4.436,1.844
	c1.143,0.437,2.25,0.828,3.273,1.169c0.511,0.171,1.002,0.33,1.466,0.476c1.392,0.44,2.543,0.767,3.302,0.974
	c0.253,0.069,0.462,0.124,0.622,0.166s0.27,0.07,0.324,0.084c1.926,0.483,3.197,0.801,4.543,1.066
	c0.686,0.135,1.599,0.33,2.288,0.448c0.343,0.059,0.714,0.121,1.1,0.186c0.772,0.128,1.601,0.262,2.374,0.38
	c0.387,0.06,0.76,0.114,1.103,0.163c1.11,0.157,2.277,0.29,3.405,0.402c0.451,0.045,0.897,0.086,1.328,0.124
	c0.864,0.075,1.678,0.137,2.392,0.185c0.892,0.06,1.627,0.097,2.107,0.113c1.042,0.034,2.345,0.084,3.517,0.099
	c0.391,0.005,0.767,0.007,1.115,0.003c0.348-0.004,0.753-0.006,1.159-0.01c0.405-0.003,0.811-0.008,1.159-0.016
	c0.695-0.016,1.621-0.054,2.315-0.077c0.173-0.005,0.362-0.014,0.557-0.023c0.391-0.019,0.811-0.044,1.201-0.069
	c0.195-0.013,0.383-0.025,0.557-0.037c1.54-0.102,1.54-0.102,4.617-0.413c0.346-0.034,0.747-0.085,1.149-0.136
	c0.402-0.051,0.804-0.106,1.148-0.148c1.299-0.161,2.677-0.4,4.586-0.731c0.02-0.003,2.053-0.364,4.588-0.961
	c0.68-0.16,1.47-0.358,2.258-0.566c0.394-0.103,0.788-0.209,1.166-0.313c0.379-0.103,0.743-0.207,1.078-0.303
	c0.511-0.147,1.009-0.298,1.495-0.447c0.485-0.15,0.957-0.301,1.413-0.451c2.28-0.75,4.173-1.48,5.453-2.003
	c0.256-0.104,0.487-0.202,0.693-0.288c0.779-0.33,2.402-1.016,4.464-2.039c1.299-0.645,2.993-1.581,4.258-2.288
	c0,0,0.001,0,0.001-0.001c19.943-11.589,364.991-212.317,364.991-212.317c0.041-0.024,0.079-0.052,0.12-0.077
	c-0.041,0.024-0.078,0.053-0.119,0.076l0.001-0.001l-0.001,0.001c0.521-0.304,1.182-0.696,1.946-1.173
	c1.273-0.795,2.832-1.828,4.506-3.08c0.661-0.495,1.539-1.162,2.17-1.697c0.548-0.464,1.183-1.01,1.811-1.565
	c0.628-0.554,1.249-1.116,1.768-1.612c1.622-1.549,3.064-3.184,3.691-3.913c0.209-0.243,0.327-0.386,0.331-0.391
	c0.908-1.13,2.089-2.659,2.933-3.836c0.56-0.782,1.24-1.869,1.745-2.687c0.529-0.857,1.194-2.025,1.644-2.926
	c0.33-0.662,0.699-1.444,1.057-2.231c0.358-0.786,0.706-1.578,0.996-2.259c0.416-0.982,0.862-2.336,1.195-3.35
	c0.059-0.179,0.118-0.373,0.179-0.576c0.12-0.405,0.241-0.843,0.354-1.251c0.056-0.204,0.111-0.4,0.161-0.581
	c0.075-0.266,0.149-0.558,0.222-0.862c0.144-0.607,0.281-1.263,0.402-1.877c0.061-0.306,0.118-0.601,0.17-0.874
	c0.144-0.749,0.288-1.756,0.386-2.513c0.137-1.077,0.252-2.521,0.32-3.605c0.014-0.211,0.022-0.444,0.029-0.683
	c0.002-0.085,0.004-0.171,0.006-0.257c0.004-0.178,0.007-0.352,0.01-0.53c0-0.007,0-0.014,0-0.021v0.001l0,0v-0.002l0,0
	c0.014-0.353,0.02-0.706,0.018-1.061l0.018-6.462C512.061,157.506,504.947,168.401,490.642,176.713z"/>
<path style="fill:#FF9911;" d="M511.977,145.653c-0.031-1.007-0.085-2.127-0.146-3.021c-0.053-0.771-0.172-1.796-0.283-2.561
	c-0.045-0.307-0.101-0.698-0.177-1.162c-0.188-1.161-0.491-2.785-1.01-4.728c-0.103-0.389-0.216-0.79-0.339-1.204
	c-0.107-0.359-0.234-0.777-0.368-1.193c-0.134-0.416-0.272-0.831-0.399-1.183c-0.308-0.854-0.712-1.949-1.094-2.835
	c-0.046-0.107-0.093-0.223-0.139-0.322c-0.154-0.336-0.323-0.699-0.5-1.074c-0.356-0.751-0.748-1.553-1.124-2.295
	c-0.188-0.371-0.372-0.726-0.544-1.052c-0.112-0.21-0.237-0.436-0.371-0.668c-0.268-0.464-0.566-0.956-0.848-1.412
	c-0.141-0.228-0.278-0.447-0.403-0.649c-0.24-0.386-0.53-0.83-0.826-1.269c-0.298-0.439-0.603-0.872-0.875-1.236
	c-0.216-0.289-0.455-0.601-0.704-0.923c-0.499-0.643-1.045-1.327-1.558-1.958c-0.257-0.316-0.506-0.619-0.738-0.897
	c-0.007-0.009-0.475-0.55-1.192-1.322c-0.717-0.772-1.683-1.776-2.69-2.714c-0.788-0.734-1.805-1.615-2.73-2.398
	c-0.308-0.261-0.606-0.51-0.882-0.74c-0.611-0.508-1.462-1.14-2.1-1.611c-0.315-0.232-0.682-0.499-1.054-0.763
	c-0.372-0.263-0.746-0.522-1.074-0.735c-1.217-0.793-2.863-1.818-4.109-2.566c-0.072-0.042-0.147-0.076-0.22-0.116
	c-0.003-0.002-0.007-0.004-0.01-0.006c0.002,0.001,0.004,0.002,0.006,0.003c0.074,0.04,0.15,0.075,0.224,0.118
	c-0.479-0.276-0.932-0.53-1.357-0.764c-1.277-0.701-2.304-1.217-3.028-1.574c-0.89-0.438-1.741-0.832-2.458-1.153
	c-0.717-0.321-1.299-0.571-1.653-0.719c-0.236-0.099-0.371-0.154-0.376-0.156c-0.649-0.262-1.647-0.666-2.664-1.052
	c-0.61-0.232-1.228-0.458-1.782-0.643c-0.666-0.223-1.549-0.536-2.219-0.74c-0.564-0.171-1.033-0.315-1.433-0.435
	c-0.398-0.12-0.725-0.219-1.004-0.303c-0.093-0.027-0.181-0.053-0.264-0.078c-0.167-0.049-0.316-0.092-0.455-0.132
	c-0.138-0.04-0.265-0.075-0.39-0.109c-0.186-0.05-0.363-0.097-0.555-0.146c-0.127-0.032-0.262-0.066-0.411-0.103
	c-1.003-0.25-1.72-0.427-2.288-0.566c-0.568-0.139-0.99-0.236-1.401-0.325c-0.275-0.06-0.545-0.115-0.854-0.174
	c-0.171-0.033-0.357-0.071-0.551-0.111c-0.386-0.078-0.799-0.163-1.186-0.237c-0.193-0.037-0.379-0.071-0.552-0.101
	c-1.29-0.222-2.131-0.365-2.8-0.473c-0.525-0.085-0.947-0.146-1.397-0.207c-0.125-0.017-0.252-0.033-0.385-0.05
	c-0.69-0.087-1.607-0.214-2.298-0.284c-0.381-0.039-0.716-0.072-1.01-0.101c-0.59-0.06-1.026-0.102-1.379-0.136
	c-0.883-0.085-1.249-0.109-2.227-0.174c-0.108-0.007-0.242-0.017-0.403-0.026c-0.482-0.03-1.195-0.073-2.091-0.111
	c-0.598-0.025-1.277-0.049-2.024-0.066c-0.747-0.017-1.561-0.027-2.428-0.027c-0.164,0-0.35,0.001-0.554,0.002
	c-0.409,0.003-0.892,0.008-1.437,0.019c-1.088,0.021-2.415,0.064-3.857,0.143c-0.361,0.02-0.728,0.043-1.1,0.067
	c-0.368,0.024-0.714,0.049-1.044,0.074c-0.658,0.05-1.25,0.1-1.807,0.154c-1.392,0.133-2.569,0.281-4.066,0.469
	c-0.307,0.039-0.583,0.075-0.864,0.116c-0.14,0.02-0.282,0.041-0.43,0.064c-0.445,0.068-0.946,0.15-1.632,0.267
	c-0.458,0.077-0.998,0.17-1.659,0.284c-0.173,0.03-0.359,0.065-0.554,0.101c-0.485,0.093-1.004,0.202-1.466,0.294
	c-0.092,0.019-0.19,0.039-0.276,0.055c-0.309,0.061-0.58,0.116-0.856,0.176c-0.551,0.119-1.117,0.255-2.028,0.481
	c-0.456,0.113-0.998,0.249-1.668,0.416c-0.891,0.223-1.255,0.322-2.683,0.754c-0.476,0.144-1.07,0.326-1.841,0.561
	c-0.168,0.051-0.349,0.11-0.536,0.171c-0.562,0.185-1.183,0.404-1.681,0.573c-0.366,0.123-0.752,0.261-1.146,0.406
	c-0.787,0.292-1.601,0.612-2.322,0.903c-0.361,0.145-0.698,0.282-0.997,0.403c-0.015,0.006-0.107,0.044-0.233,0.096
	c-0.317,0.133-0.945,0.399-1.8,0.786c-0.717,0.325-1.581,0.728-2.521,1.194c-0.325,0.161-0.675,0.341-1.035,0.53
	c-1.084,0.568-2.274,1.229-3.223,1.759c0.024-0.014,0.049-0.025,0.074-0.04c-0.015,0.008-0.03,0.016-0.045,0.024
	c-0.009,0.005-0.02,0.01-0.03,0.016c-67.82,39.413-135.635,78.823-203.455,118.235c1.061-0.616,2.179-1.192,3.337-1.736
	l-65.706,38.185l-19.597,11.388l-19.755,11.48c-19.94,11.588-39.879,23.175-59.818,34.763c0.01-0.006,0.021-0.01,0.03-0.017
	c0.014-0.008,0.028-0.015,0.042-0.022c-0.024,0.014-0.049,0.025-0.073,0.039c-0.521,0.304-1.182,0.696-1.946,1.173
	c-0.509,0.319-1.064,0.674-1.654,1.067c-0.295,0.196-0.599,0.402-0.909,0.616c-0.622,0.429-1.274,0.895-1.942,1.396
	c-0.661,0.495-1.539,1.162-2.17,1.697c-0.821,0.697-1.839,1.578-2.736,2.393c-0.299,0.272-0.584,0.536-0.843,0.784
	c-2.163,2.065-4.005,4.283-4.021,4.303c-0.453,0.564-0.976,1.23-1.49,1.9c-0.514,0.671-1.021,1.348-1.443,1.936
	c-0.14,0.195-0.287,0.41-0.438,0.634c-0.301,0.449-0.613,0.939-0.901,1.398c-0.143,0.229-0.281,0.45-0.408,0.655
	c-0.133,0.214-0.273,0.447-0.417,0.692c-0.432,0.732-0.889,1.558-1.227,2.234c-0.165,0.331-0.34,0.693-0.518,1.069
	c-0.535,1.13-1.101,2.398-1.535,3.42c-0.104,0.246-0.21,0.514-0.316,0.795c-0.317,0.842-0.63,1.794-0.879,2.555
	c-0.059,0.179-0.118,0.373-0.179,0.576c-0.12,0.405-0.241,0.843-0.353,1.251c-0.056,0.204-0.111,0.4-0.161,0.581
	c-0.075,0.268-0.149,0.558-0.222,0.862c-0.216,0.91-0.416,1.933-0.574,2.75c-0.109,0.562-0.216,1.268-0.304,1.906
	c-0.029,0.212-0.056,0.417-0.08,0.606c-0.034,0.27-0.067,0.561-0.098,0.865c-0.093,0.911-0.17,1.927-0.222,2.739
	c-0.011,0.191-0.021,0.398-0.027,0.613c-0.02,0.642-0.022,1.355-0.036,1.927c0,0.003,0,0.007,0,0.011
	c0.062,10.895,7.299,21.79,21.696,30.102c14.397,8.312,33.229,12.468,52.038,12.468c18.808,0,37.594-4.157,51.899-12.47l0,0
	l199.987-116.22c0-0.069-0.003-0.137-0.003-0.205L490.64,176.71c14.305-8.313,21.418-19.207,21.358-30.102l0,0
	C511.995,146.313,511.987,145.989,511.977,145.653z"/>
<path style="fill:#FFA834;" d="M481.064,129.377c1.662-2.78,2.483-5.694,2.468-8.617l0,0c-0.021-3.342-1.133-6.67-3.342-9.8
	c-0.829-1.173-1.811-2.32-2.949-3.428c-1.517-1.477-3.308-2.889-5.376-4.21c-0.517-0.33-1.051-0.655-1.602-0.974
	c-8.83-5.094-20.292-7.624-31.829-7.626c-7.932,0.002-15.815,1.199-22.818,3.602c-2.546,0.874-4.977,1.907-7.252,3.101
	c-0.568,0.299-1.127,0.607-1.676,0.925c-25.656,14.91-51.31,29.817-75.977,44.152c-1.006,0.585-2.011,1.169-3.015,1.751
	c-3.522,2.047-7.026,4.082-10.503,6.103c-0.704,0.41-1.406,0.817-2.109,1.226c-36.683,21.318-70.611,41.035-98.329,57.142
	c0.057,0.033,0.118,0.068,0.177,0.102l0,0c-23.104,13.426-50.744,29.489-80.658,46.873c-0.075,0.044-0.152,0.088-0.227,0.132
	c-5.712,3.32-11.51,6.688-17.371,10.095c-2.93,1.703-5.88,3.417-8.842,5.138c-3.81,2.214-7.643,4.442-11.498,6.682
	c-3.298,1.916-6.609,3.841-9.934,5.773c-2.513,1.461-5.034,2.926-7.56,4.394c-5.23,3.04-10.482,6.092-15.752,9.154
	c-7.777,4.52-15.587,9.058-23.397,13.597c-3.287,1.912-5.951,4.04-7.995,6.305c-1.022,1.133-1.889,2.3-2.601,3.491
	c-1.187,1.985-1.946,4.04-2.276,6.117c-0.133,0.831-0.196,1.666-0.192,2.5c0.005,0.835,0.078,1.67,0.22,2.5
	c0.071,0.416,0.159,0.83,0.263,1.243c0.63,2.48,1.876,4.912,3.739,7.221c1.242,1.539,2.759,3.023,4.551,4.428
	c1.344,1.054,2.843,2.064,4.497,3.02c8.83,5.094,20.292,7.624,31.829,7.626c0.721,0,1.442-0.01,2.161-0.03
	c10.075-0.279,19.948-2.495,27.908-6.672c0.568-0.299,1.127-0.607,1.676-0.925c0.245-0.142,0.489-0.284,0.732-0.426
	c0.187-0.109,0.412-0.239,0.668-0.389c0.015-0.008,0.029-0.017,0.043-0.025c0.42-0.243,0.93-0.54,1.52-0.884
	c0.317-0.184,0.633-0.368,0.95-0.552c0.133-0.077,0.267-0.156,0.405-0.236c0.443-0.257,0.886-0.515,1.329-0.772
	c0.597-0.347,1.238-0.72,1.918-1.115c3.182-1.849,6.361-3.697,9.538-5.542c0.478-0.277,0.962-0.559,1.456-0.846
	c0.417-0.242,0.834-0.485,1.251-0.726c0.368-0.213,0.739-0.429,1.114-0.647c0.544-0.317,1.089-0.633,1.633-0.949
	c0.554-0.322,1.114-0.648,1.683-0.978c0.312-0.182,0.625-0.364,0.937-0.544c1.072-0.623,2.17-1.261,3.292-1.913
	c14.46-8.403,28.781-16.726,42.758-24.849c1.217-0.707,2.439-1.417,3.663-2.13c1.285-0.747,2.568-1.492,3.847-2.236
	c1.077-0.626,2.156-1.253,3.236-1.881c0.959-0.557,1.918-1.115,2.873-1.67c2.816-1.636,5.635-3.275,8.448-4.909
	c8.834-5.134,17.474-10.154,25.861-15.029c0.601-0.349,1.2-0.697,1.796-1.044c3.094-1.798,6.153-3.576,9.174-5.332
	c0.166-0.096,0.331-0.192,0.496-0.288c1.669-0.97,3.324-1.932,4.97-2.888c0.077-0.045,0.155-0.09,0.232-0.135
	c3.403-1.978,6.752-3.924,10.046-5.838c0.468-0.272,0.933-0.542,1.393-0.81c3.594-2.089,7.116-4.136,10.566-6.14
	c0.225-0.131,0.446-0.259,0.668-0.388c4.353-2.53,8.593-4.994,12.692-7.376c0.251-0.146,0.491-0.285,0.721-0.419
	c1.056-0.614,2.111-1.227,3.149-1.83c0-0.068-0.001-0.139-0.001-0.207l4.632-2.692l0,0c28.807-16.74,63.813-37.084,101.407-58.931
	l4.947-2.875c8.37-4.864,16.857-9.797,25.428-14.777l5.12-2.976c2.858-1.66,5.723-3.326,8.595-4.995l6.256-3.635
	c6.283-3.652,12.592-7.317,18.913-10.991l14.633-8.504C475.399,136.305,478.927,132.952,481.064,129.377z"/>
<g>
	<path style="fill:#F18700;" d="M122.329,286.695c15.893,29.83,40.796,49.551,40.796,49.551s-0.865-28.649-16.758-58.487
		c-4.762-8.934-10.329-16.946-15.794-23.807l-3.339,1.94l-14.445,8.395C115.134,271.365,118.22,278.984,122.329,286.695z"/>
	<path style="fill:#F18700;" d="M191.308,246.609c15.886,29.834,40.796,49.551,40.796,49.551s-0.865-28.649-16.765-58.483
		c-4.791-8.996-10.4-17.058-15.9-23.95c-3.279,1.905-6.557,3.811-9.835,5.716c1.061-0.616,2.179-1.192,3.337-1.736l-11.175,6.494
		C184.112,231.28,187.198,238.897,191.308,246.609z"/>
	<path style="fill:#F18700;" d="M260.279,206.527c15.893,29.83,40.796,49.551,40.796,49.551s-0.865-28.649-16.758-58.487
		c-4.794-8.996-10.405-17.056-15.905-23.947c-5.909,3.435-11.819,6.868-17.728,10.303
		C253.036,191.073,256.138,198.753,260.279,206.527z"/>
	<path style="fill:#F18700;" d="M329.257,166.441c15.886,29.834,40.796,49.551,40.796,49.551s-0.865-28.649-16.765-58.483
		c-4.791-8.993-10.399-17.061-15.898-23.951c-5.911,3.435-11.822,6.87-17.733,10.305
		C322.008,150.988,325.115,158.668,329.257,166.441z"/>
</g>
<g>
</g>
<g>
</g>
<g>
</g>
<g>
</g>
<g>
</g>
<g>
</g>
<g>
</g>
<g>
</g>
<g>
</g>
<g>
</g>
<g>
</g>
<g>
</g>
<g>
</g>
<g>
</g>
<g>
</g>
</svg>
