<?xml version="1.0" encoding="iso-8859-1"?>
<!-- Generator: Adobe Illustrator 19.0.0, SVG Export Plug-In . SVG Version: 6.00 Build 0)  -->
<svg version="1.1" id="Layer_1" xmlns="http://www.w3.org/2000/svg" xmlns:xlink="http://www.w3.org/1999/xlink" x="0px" y="0px"
	 viewBox="0 0 511.993 511.993" style="enable-background:new 0 0 511.993 511.993;" xml:space="preserve">
<circle style="fill:#C60024;" cx="255.996" cy="275.599" r="236.394"/>
<ellipse transform="matrix(0.638 -0.77 0.77 0.638 -104.477 155.8421)" style="fill:#FE0B37;" cx="113.518" cy="189.045" rx="70.078" ry="48.891"/>
<path style="fill:#9CDD03;" d="M356.429,38.904c0,0-43.125,0.858-70.878,16.714c-0.456-22.615-30.016-40.887-30.016-40.887
	S226.181,33.004,225.98,55.62c-27.932-15.856-71.068-16.714-71.068-16.714s1.621,24.983,29.086,41.11
	c-39.044,0.189-70.494,17.252-70.494,17.252s31.642,17.063,70.686,17.253c-27.283,16.127-28.622,41.11-28.622,41.11
	s43.125-0.858,70.878-16.714c0.456,22.615,30.016,40.887,30.016,40.887s29.354-18.273,29.556-40.888
	c27.932,15.856,71.066,16.713,71.066,16.713s-1.62-24.982-29.085-41.109c39.042-0.19,70.492-17.253,70.492-17.253
	s-31.642-17.063-70.686-17.253C355.089,63.888,356.429,38.904,356.429,38.904"/>
<path style="fill:#8FCC05;" d="M248.232,83.135c-7.254,4.07-7.418,10.786-0.368,15s18.645,4.332,25.898,0.261
	c7.254-4.07,7.418-10.786,0.368-15C267.08,79.183,255.484,79.066,248.232,83.135"/>
<g>
	<path style="fill:#86BC06;" d="M277.736,9.961c0.106-2.568-1.537-5.16-4.933-7.12c-6.56-3.788-17.161-3.787-23.678,0.001
		c-3.247,1.887-4.867,4.359-4.864,6.834c0-0.008-0.001-0.016-0.001-0.024l4.511,81.979c-0.005,2.497,1.197,4.999,3.607,6.905
		c4.788,3.788,12.525,3.787,17.281,0c2.364-1.882,3.546-4.345,3.552-6.811l4.535-81.979C277.746,9.817,277.739,9.889,277.736,9.961z
		"/>
	<path style="fill:#86BC06;" d="M277.746,9.745l-4.535,81.979c-0.005,2.466-1.188,4.929-3.552,6.811
		c-4.755,3.787-12.493,3.788-17.281,0c-2.41-1.906-3.612-4.407-3.607-6.905L244.26,9.651c-0.007,2.497,1.642,4.999,4.942,6.905
		c6.56,3.788,17.161,3.787,23.677,0C276.118,14.674,277.738,12.212,277.746,9.745z"/>
</g>
<path style="fill:#8FCC05;" d="M272.803,2.84c6.56,3.788,6.593,9.927,0.075,13.715c-6.516,3.787-17.116,3.788-23.677,0
	c-6.56-3.788-6.593-9.927-0.077-13.714C255.643-0.946,266.244-0.947,272.803,2.84z"/>
<g>
</g>
<g>
</g>
<g>
</g>
<g>
</g>
<g>
</g>
<g>
</g>
<g>
</g>
<g>
</g>
<g>
</g>
<g>
</g>
<g>
</g>
<g>
</g>
<g>
</g>
<g>
</g>
<g>
</g>
</svg>
