<?xml version="1.0" encoding="iso-8859-1"?>
<!-- Generator: Adobe Illustrator 19.0.0, SVG Export Plug-In . SVG Version: 6.00 Build 0)  -->
<svg version="1.1" id="Layer_1" xmlns="http://www.w3.org/2000/svg" xmlns:xlink="http://www.w3.org/1999/xlink" x="0px" y="0px"
	 viewBox="0 0 511.999 511.999" style="enable-background:new 0 0 511.999 511.999;" xml:space="preserve">
<g>
	<path style="fill:#FEC377;" d="M511.998,250.344c-0.066-11.488-1.252-19.339-1.411-20.392c-0.567-3.756-1.435-8.751-2.257-12.459
		c-0.748-3.373-2.005-7.811-2.972-11.127c-1.295-4.442-4.312-12.349-5.874-15.706c-1.65-3.545-3.942-8.232-5.794-11.677
		c-1.353-2.518-3.359-5.765-4.882-8.185c-1.393-2.213-3.345-5.107-4.914-7.198c-2.482-3.306-5.931-7.609-8.581-10.781
		c-1.635-1.957-3.975-4.429-5.744-6.266c-1.699-1.766-4.004-4.086-5.811-5.743c-3.286-3.015-7.793-6.897-11.223-9.747
		c-1.93-1.603-4.613-3.605-6.635-5.091c-2.011-1.477-4.708-3.429-6.799-4.791c-4.089-2.661-9.61-6.102-13.792-8.614
		c-0.28-0.162-0.568-0.29-0.856-0.422c0.287,0.133,0.576,0.26,0.855,0.422c-12.646-7.289-23.068-11.907-30.736-15.114
		c-14.5-6.068-26.9-9.733-32.859-11.496c-0.767-0.227-7.766-2.28-17.08-4.467c-8.401-1.973-15.196-3.226-17.429-3.637
		c-16.43-3.029-30.397-4.386-35.639-4.83c-5.413-0.457-12.637-1.023-18.065-1.204c-2.72-0.091-6.345-0.24-9.066-0.301
		c-2.722-0.061-6.352-0.07-9.075-0.1c-2.722-0.03-6.352,0.07-9.074,0.1c-0.073,0.001-8.104,0.135-18.108,0.802
		c-6.745,0.45-7.594,0.537-17.995,1.607c-0.68,0.07-16.868,1.758-35.37,5.647c-15.983,3.36-28.224,7.054-34.097,8.957
		c-3.807,1.233-9.021,2.923-16.414,5.764c-5.681,2.183-11.036,4.423-15.916,6.659c-2.907,1.332-8.318,3.811-15.366,7.601
		c-6.275,3.373-8.398,4.682-14.704,8.566c-4.219,2.6-5.473,3.5-13.631,9.359c-2.12,1.522-4.867,3.667-6.857,5.356
		c-3.378,2.868-7.872,6.715-11.051,9.802c-4.683,4.549-7.404,7.521-10.789,11.413c-1.778,2.045-4.027,4.877-5.685,7.02
		c-1.253,1.619-2.815,3.856-4.016,5.513c-1.702,2.351-3.794,5.615-5.259,8.122c-4.082,6.985-4.378,7.609-7.998,15.249
		c-1.511,3.189-3.175,7.6-4.399,10.91c-1.339,3.622-2.811,8.565-3.787,12.301c-0.963,3.691-2.03,8.671-2.671,12.431
		c-0.642,3.764-1.288,8.82-1.605,12.624c-0.327,3.926-0.461,9.183-0.537,13.122l0,0L0,261.653c0.033,5.86,0.273,9.594,0.676,14.064
		c0.34,3.77,0.988,8.786,1.716,12.5c0.37,1.889,0.82,4.419,1.276,6.289c0.819,3.356,2.007,7.81,2.972,11.127
		c1.076,3.698,2.877,8.519,4.334,12.083c7.116,17.408,17.699,33.467,31.455,47.73c6.953,7.209,14.916,14.132,23.669,20.58
		c12.949,9.538,25.749,16.344,28.184,17.612c5.7,2.969,8.562,4.458,15.333,7.521c8.481,3.837,15.834,6.585,15.903,6.611
		c7.765,2.855,11.662,4.287,16.416,5.733c2.521,0.768,5.866,1.854,8.407,2.554c10.257,2.824,12.105,3.333,17.057,4.459
		c3.173,0.721,11.603,2.636,17.413,3.633c2.644,0.453,6.159,1.118,8.813,1.509c11.687,1.721,11.687,1.721,17.823,2.413
		c9.633,1.086,17.928,1.601,18.003,1.605c2.714,0.15,6.33,0.411,9.047,0.502c2.72,0.09,6.345,0.24,9.066,0.301
		c2.722,0.06,6.353,0.07,9.075,0.1c5.442,0.061,12.697-0.22,18.136-0.401c2.717-0.09,6.332-0.351,9.046-0.502
		c4.712-0.262,7.001-0.494,17.995-1.607c0.073-0.007,7.948-0.841,17.811-2.416c10.13-1.617,17.49-3.216,17.56-3.232
		c2.591-0.573,6.053-1.31,8.636-1.918c2.589-0.609,6.023-1.497,8.605-2.14c2.549-0.634,5.906-1.63,8.437-2.331
		c4.804-1.33,9.761-3.003,16.622-5.319c0.07-0.024,7.382-2.524,16.357-6.28c4.68-1.958,10.832-4.777,15.39-7.005
		c5.917-2.892,17.65-8.996,29.749-17.371c9.689-6.708,17.502-13.11,25.33-20.759c5.528-5.4,9.889-10.55,11.094-12.001
		c1.319-1.587,3.057-3.722,4.292-5.374c1.766-2.362,4.062-5.56,5.71-8.006c2.229-3.308,5.005-7.859,6.859-11.392
		c1.476-2.812,3.356-6.608,4.702-9.485c0.829-1.769,1.782-4.196,2.544-5.995c1.368-3.224,2.789-7.681,3.879-11.009
		c0.603-1.839,1.239-4.342,1.762-6.206c1.03-3.673,1.963-8.682,2.671-12.43c0.708-3.752,1.288-8.821,1.605-12.627
		c0.211-2.537,0.342-5.626,0.428-8.56c0.072-1.52,0.118-3.041,0.11-4.561L511.998,250.344c0.007,1.253-0.017,2.505-0.065,3.756
		C511.981,252.849,512.005,251.597,511.998,250.344z M164.399,254.243c2.158-1.41,6.175-4.034,12.303-6.999
		c6.113-2.957,10.376-4.555,15.014-6.215c1.756-0.629,8.169-2.84,16.909-4.888c2.657-0.623,6.222-1.367,8.907-1.86
		c2.78-0.511,6.515-1.039,9.307-1.484c2.622-0.417,14.819-1.945,28.622-1.906c5.77,0.016,13.467,0.339,19.214,0.852
		c2.853,0.255,6.65,0.68,9.489,1.065c2.79,0.378,6.489,1.031,9.268,1.476c4.679,0.749,16.681,3.423,26.372,6.914
		c6.523,2.35,10.153,3.882,15.559,6.508c3.852,1.871,7.864,4.173,11.925,6.842c0.749,0.492,1.622,1.09,2.471,1.698
		c-0.794,0.572-1.6,1.141-2.302,1.601c-1.684,1.102-3.962,2.526-5.719,3.508c-3.877,2.169-9.222,4.748-13.307,6.495
		c-2.405,1.029-5.654,2.318-8.146,3.114c-2.481,0.792-5.77,1.909-8.271,2.632c-2.573,0.744-6.03,1.644-8.637,2.257
		c-2.676,0.63-6.255,1.44-8.97,1.872c-5.577,0.888-13.031,2.004-18.654,2.528c-2.867,0.268-6.699,0.576-9.578,0.639
		c-2.888,0.064-6.739,0.213-9.628,0.213c-2.892,0-6.749-0.085-9.638-0.212c-2.895-0.129-6.761-0.321-9.64-0.644
		c-5.625-0.631-13.13-1.511-18.697-2.534c-2.752-0.506-6.406-1.267-9.13-1.907c-2.619-0.614-6.071-1.588-8.673-2.27
		c-2.61-0.684-6.021-1.847-8.569-2.737c-2.63-0.917-6.122-2.197-8.659-3.345c-4.077-1.844-9.42-4.51-13.366-6.619
		c-2.138-1.188-5.176-3.128-7.951-5.112C162.975,255.192,163.737,254.676,164.399,254.243z"/>
	<path style="fill:#FEC377;" d="M362.344,266.529c-0.286-1.966-0.302-2.677-0.345-4.576l0.032-11.309
		c0.045-15.816-10.393-31.655-31.294-43.723c-41.537-23.982-108.671-23.982-149.931-0.003
		c-20.501,11.914-30.764,27.507-30.808,43.123l-0.032,11.309c-0.016,2.195-0.173,3.234-0.411,4.805
		c-0.062,0.408-0.18,0.947-0.283,1.346c-0.062,0.237-0.143,0.553-0.213,0.787c-0.079,0.262-0.177,0.519-0.26,0.782
		c0.388-0.664,0.918-1.572,1.593-2.417c0.995-1.247,2.363-2.888,3.519-3.987c1.742-1.655,4.173-3.747,6.046-5.252
		c1.277-1.025,3.071-2.275,4.442-3.17c2.158-1.41,6.175-4.034,12.303-6.999c6.113-2.957,10.376-4.555,15.014-6.215
		c1.756-0.629,8.169-2.84,16.909-4.888c2.657-0.623,6.222-1.367,8.907-1.86c2.78-0.511,6.515-1.039,9.307-1.484
		c2.622-0.417,14.819-1.945,28.622-1.906c5.77,0.016,13.467,0.339,19.214,0.852c2.853,0.255,6.65,0.68,9.489,1.065
		c2.79,0.378,6.489,1.031,9.268,1.476c4.679,0.749,16.681,3.423,26.372,6.914c6.523,2.35,10.153,3.882,15.559,6.508
		c3.852,1.871,7.864,4.173,11.925,6.842c1.379,0.906,3.187,2.167,4.473,3.201c1.87,1.504,4.303,3.589,6.038,5.246
		c1.23,1.174,2.683,2.925,3.743,4.254c0.008,0.01,0.897,1.149,1.557,2.39c0.005,0.01,0.016,0.021,0.023,0.03
		C362.664,268.347,362.447,267.233,362.344,266.529z"/>
</g>
<path style="fill:#FF728C;" d="M352.868,148.894c-53.807-31.048-140.627-31.048-194.079-0.003
	c-53.429,31.066-53.147,81.357,0.632,112.423c53.809,31.05,140.625,31.043,194.08-0.005
	C406.921,230.247,406.648,179.961,352.868,148.894z M357.87,249.541c-1.671,1.742-4.14,3.84-6.1,5.249
	c-1.288,0.926-2.987,2.188-4.314,3.056c-1.684,1.102-3.962,2.526-5.719,3.508c-3.877,2.169-9.222,4.748-13.307,6.495
	c-2.405,1.029-5.654,2.318-8.146,3.114c-2.481,0.792-5.77,1.909-8.271,2.632c-2.573,0.744-6.03,1.644-8.637,2.257
	c-2.676,0.63-6.255,1.44-8.97,1.872c-5.577,0.888-13.031,2.004-18.654,2.528c-2.867,0.268-6.699,0.576-9.578,0.639
	c-2.888,0.064-6.739,0.213-9.628,0.213c-2.892,0-6.749-0.085-9.638-0.212c-2.895-0.129-6.761-0.321-9.64-0.644
	c-5.625-0.631-13.13-1.511-18.697-2.534c-2.752-0.506-6.406-1.267-9.13-1.907c-2.619-0.614-6.071-1.588-8.673-2.27
	c-2.61-0.684-6.021-1.847-8.569-2.737c-2.63-0.917-6.122-2.197-8.659-3.345c-4.077-1.844-9.42-4.51-13.366-6.619
	c-3.407-1.893-9.104-5.697-12.368-8.542c-1.527-1.331-3.557-3.127-4.905-4.638c-0.766-0.859-1.685-1.981-2.465-2.984
	c2.116-13.776,12.224-27.206,30.372-37.753c41.26-23.977,108.394-23.978,149.931,0.003c18.552,10.711,28.84,24.394,30.892,38.395
	c-0.136,0.179-0.255,0.331-0.343,0.44C360.332,246.951,358.929,248.437,357.87,249.541z"/>
<path style="fill:#FEDAAA;" d="M511.998,250.344c0.212,37.946-24.566,75.891-74.384,104.842
	c-49.822,28.953-115.251,43.431-180.762,43.433c-65.511,0.001-131.104-14.474-181.253-43.427
	c-50.147-28.953-75.353-66.9-75.566-104.847L0,261.653c0.033,5.86,0.273,9.594,0.676,14.064c0.34,3.77,0.988,8.786,1.716,12.5
	c0.37,1.889,0.82,4.419,1.276,6.289c0.819,3.356,2.007,7.81,2.972,11.127c1.076,3.698,2.877,8.519,4.334,12.083
	c7.116,17.408,17.699,33.467,31.455,47.73c6.953,7.209,14.916,14.132,23.669,20.58c12.949,9.538,25.749,16.344,28.184,17.612
	c5.7,2.969,8.562,4.458,15.333,7.521c8.481,3.837,15.834,6.585,15.903,6.611c7.765,2.855,11.662,4.287,16.416,5.733
	c2.521,0.768,5.866,1.854,8.407,2.554c10.257,2.824,12.105,3.333,17.057,4.459c3.173,0.721,11.603,2.636,17.413,3.633
	c2.644,0.453,6.159,1.118,8.813,1.509c11.687,1.721,11.687,1.721,17.823,2.413c9.633,1.086,17.928,1.601,18.003,1.605
	c2.714,0.15,6.33,0.411,9.047,0.502c2.72,0.09,6.345,0.24,9.066,0.301c2.722,0.06,6.353,0.07,9.075,0.1
	c5.442,0.061,12.697-0.22,18.136-0.401c2.717-0.09,6.332-0.351,9.046-0.502c4.712-0.262,7.001-0.494,17.995-1.607
	c0.073-0.007,7.948-0.841,17.811-2.416c10.13-1.617,17.49-3.216,17.56-3.232c2.591-0.573,6.053-1.31,8.636-1.918
	c2.589-0.609,6.023-1.497,8.605-2.14c2.549-0.634,5.906-1.63,8.437-2.331c4.804-1.33,9.761-3.003,16.622-5.319
	c0.07-0.024,7.382-2.524,16.357-6.28c4.68-1.958,10.832-4.777,15.39-7.005c5.917-2.892,17.65-8.996,29.749-17.371
	c9.689-6.708,17.502-13.11,25.33-20.759c5.528-5.4,9.889-10.55,11.094-12.001c1.319-1.587,3.057-3.722,4.292-5.374
	c1.766-2.362,4.062-5.56,5.71-8.006c2.229-3.308,5.005-7.859,6.859-11.392c1.476-2.812,3.356-6.608,4.702-9.485
	c0.829-1.769,1.782-4.196,2.544-5.995c1.368-3.224,2.789-7.681,3.879-11.009c0.603-1.839,1.239-4.342,1.762-6.206
	c1.03-3.673,1.963-8.682,2.671-12.43c0.708-3.752,1.288-8.821,1.605-12.627c0.211-2.537,0.342-5.626,0.428-8.56
	c0.072-1.52,0.118-3.041,0.11-4.561L511.998,250.344z"/>
<path style="fill:#FF728C;" d="M425.312,112.569c4.182,2.512,9.703,5.953,13.792,8.614c2.091,1.362,4.788,3.313,6.799,4.791
	c2.022,1.485,4.705,3.487,6.635,5.091c3.43,2.849,7.936,6.733,11.222,9.747c1.807,1.656,4.112,3.976,5.811,5.743
	c1.768,1.838,4.109,4.309,5.743,6.267c2.65,3.172,6.099,7.475,8.581,10.781c1.569,2.091,3.521,4.985,4.914,7.198
	c1.522,2.42,3.528,5.667,4.882,8.185c1.852,3.444,4.144,8.13,5.794,11.677c1.562,3.357,4.58,11.263,5.874,15.706
	c0.967,3.318,2.225,7.754,2.972,11.127c0.822,3.708,1.69,8.703,2.257,12.459c0.159,1.053,1.344,8.905,1.411,20.392
	c0.213,37.946-24.566,75.891-74.384,104.842c-49.822,28.953-115.251,43.431-180.762,43.433
	c-65.511,0.001-131.104-14.474-181.253-43.427C25.452,326.239,0.246,288.292,0.032,250.345c0.076-3.939,0.211-9.195,0.537-13.122
	c0.317-3.804,0.963-8.861,1.605-12.624c0.641-3.761,1.707-8.741,2.671-12.431c0.976-3.736,2.448-8.679,3.787-12.301
	c1.224-3.31,2.887-7.721,4.399-10.91c3.621-7.639,3.916-8.264,7.999-15.249c1.465-2.506,3.556-5.771,5.259-8.122
	c1.201-1.657,2.763-3.895,4.016-5.513c1.659-2.143,3.908-4.975,5.685-7.02c3.384-3.892,6.106-6.864,10.789-11.413
	c3.179-3.088,7.673-6.935,11.051-9.802c1.989-1.69,4.737-3.834,6.857-5.356c8.158-5.859,9.411-6.759,13.631-9.359
	c6.305-3.885,8.429-5.193,14.704-8.566c7.048-3.79,12.459-6.268,15.366-7.601c4.88-2.236,10.235-4.476,15.916-6.659
	c7.394-2.841,12.608-4.531,16.414-5.764c5.874-1.903,18.114-5.598,34.097-8.957c18.502-3.889,34.69-5.577,35.37-5.647
	c10.401-1.069,11.25-1.157,17.995-1.607c10.004-0.668,18.035-0.801,18.108-0.802c2.722-0.03,6.352-0.131,9.074-0.1
	c2.722,0.03,6.353,0.041,9.075,0.1c2.721,0.061,6.346,0.21,9.066,0.301c5.428,0.181,12.653,0.746,18.065,1.204
	c5.242,0.443,19.21,1.799,35.639,4.828c2.233,0.412,9.028,1.665,17.429,3.637c9.314,2.188,16.313,4.24,17.08,4.467
	c5.959,1.762,18.359,5.428,32.859,11.496C402.243,100.662,412.666,105.279,425.312,112.569c-3.173-1.832-6.842-1.797-10.753,0.475
	C370.5,87.611,312.966,74.913,255.408,74.91c-57.557,0.002-114.945,12.7-158.714,38.131c-43.765,25.438-65.499,58.722-65.316,92.062
	c0.192,33.34,22.301,66.624,66.352,92.062c44.059,25.433,101.59,38.129,159.147,38.13c57.556-0.004,114.945-12.703,158.719-38.137
	c43.76-25.436,65.495-58.718,65.313-92.056c-0.191-33.339-22.299-66.621-66.35-92.059
	C418.471,110.771,422.139,110.736,425.312,112.569z"/>
<path style="fill:#FF3E61;" d="M437.614,341.451c-49.822,28.953-115.251,43.431-180.762,43.432
	c-65.511,0.001-131.104-14.474-181.253-43.427c-47.651-27.511-72.764-63.143-75.332-99.18c-0.12,2.779-0.189,5.668-0.235,8.069
	c0.213,37.948,25.419,75.895,75.567,104.847c50.148,28.953,115.741,43.428,181.253,43.427
	c65.511-0.001,130.941-14.479,180.762-43.433c49.819-28.951,74.596-66.897,74.384-104.842c-0.016-2.704-0.094-5.198-0.206-7.457
	C509.388,278.713,484.684,314.096,437.614,341.451z"/>
<path style="fill:#FFA5B6;" d="M414.559,113.044c44.051,25.438,66.159,58.72,66.35,92.059c0.182,33.339-21.552,66.62-65.313,92.056
	c-43.774,25.433-101.162,38.133-158.719,38.137c-57.556-0.001-115.087-12.698-159.147-38.13
	c-44.051-25.438-66.16-58.721-66.352-92.062c-0.183-33.34,21.552-66.624,65.316-92.062C140.463,87.61,197.851,74.913,255.408,74.91
	C312.966,74.913,370.5,87.612,414.559,113.044z M159.42,261.314c53.809,31.05,140.625,31.043,194.08-0.005
	c53.421-31.062,53.148-81.346-0.633-112.413c-53.807-31.048-140.627-31.048-194.079-0.003
	C105.36,179.957,105.643,230.248,159.42,261.314"/>
<g>
</g>
<g>
</g>
<g>
</g>
<g>
</g>
<g>
</g>
<g>
</g>
<g>
</g>
<g>
</g>
<g>
</g>
<g>
</g>
<g>
</g>
<g>
</g>
<g>
</g>
<g>
</g>
<g>
</g>
</svg>
