<?xml version="1.0" encoding="iso-8859-1"?>
<!-- Generator: Adobe Illustrator 19.0.0, SVG Export Plug-In . SVG Version: 6.00 Build 0)  -->
<svg version="1.1" id="Layer_1" xmlns="http://www.w3.org/2000/svg" xmlns:xlink="http://www.w3.org/1999/xlink" x="0px" y="0px"
	 viewBox="0 0 512 512" style="enable-background:new 0 0 512 512;" xml:space="preserve">
<polygon style="fill:#FEC377;" points="512,256.079 511.96,256.056 511.999,218.248 255.204,69.987 0.077,218.25 0,293.752 
	256.795,442.013 256.795,442.013 511.923,293.75 511.96,256.102 "/>
<polygon style="fill:#FFB657;" points="512,256.079 256.874,404.343 0.078,256.082 255.205,97.37 "/>
<polygon style="fill:#FFA834;" points="308.796,110.744 308.718,137.965 255.182,107.056 255.259,79.834 "/>
<polygon style="fill:#FF9911;" points="255.259,79.834 255.182,107.056 201.988,137.968 202.065,110.747 "/>
<polygon style="fill:#FFA834;" points="370.865,146.579 370.787,173.801 317.247,142.889 317.324,115.667 "/>
<polygon style="fill:#FF9911;" points="317.324,115.667 317.247,142.889 264.053,173.801 264.13,146.58 "/>
<polygon style="fill:#FFA834;" points="247.129,146.58 247.051,173.801 193.516,142.892 193.593,115.671 "/>
<polygon style="fill:#FF9911;" points="193.593,115.671 193.516,142.892 140.328,173.802 140.405,146.58 "/>
<polygon style="fill:#FFA834;" points="432.929,182.412 432.852,209.634 379.316,178.725 379.393,151.503 "/>
<polygon style="fill:#FF9911;" points="379.393,151.503 379.316,178.725 326.123,209.637 326.2,182.416 "/>
<polygon style="fill:#FFA834;" points="309.199,182.416 309.122,209.637 255.58,178.726 255.657,151.504 "/>
<polygon style="fill:#FF9911;" points="255.657,151.504 255.58,178.726 202.392,209.635 202.469,182.413 "/>
<polygon style="fill:#FFA834;" points="185.468,182.414 185.391,209.635 131.855,178.726 131.932,151.505 "/>
<polygon style="fill:#FF9911;" points="131.932,151.505 131.855,178.726 78.662,209.638 78.739,182.416 "/>
<polygon style="fill:#FFA834;" points="494.998,218.248 494.921,245.47 441.381,214.557 441.458,187.337 "/>
<polygon style="fill:#FF9911;" points="441.458,187.337 441.381,214.557 388.187,245.471 388.264,218.249 "/>
<polygon style="fill:#FFA834;" points="371.263,218.249 371.186,245.471 317.65,214.561 317.727,187.34 "/>
<polygon style="fill:#FF9911;" points="317.727,187.34 317.65,214.561 264.462,245.471 264.539,218.25 "/>
<polygon style="fill:#FFA834;" points="247.537,218.25 247.46,245.471 193.919,214.558 193.997,187.338 "/>
<polygon style="fill:#FF9911;" points="193.997,187.338 193.919,214.558 140.727,245.471 140.804,218.25 "/>
<polygon style="fill:#FFA834;" points="123.803,218.25 123.725,245.471 70.189,214.561 70.266,187.341 "/>
<polygon style="fill:#FF9911;" points="70.266,187.341 70.189,214.561 17.002,245.472 17.079,218.25 "/>
<polygon style="fill:#FFA834;" points="433.332,254.085 433.254,281.305 379.714,250.394 379.791,223.172 "/>
<polygon style="fill:#FF9911;" points="379.791,223.172 379.714,250.394 326.526,281.303 326.604,254.083 "/>
<polygon style="fill:#FFA834;" points="309.602,254.083 309.525,281.303 255.988,250.394 256.066,223.173 "/>
<polygon style="fill:#FF9911;" points="256.066,223.173 255.988,250.394 202.796,281.306 202.873,254.086 "/>
<polygon style="fill:#FFA834;" points="185.873,254.086 185.795,281.306 132.254,250.395 132.331,223.173 "/>
<polygon style="fill:#FF9911;" points="132.331,223.173 132.254,250.395 79.065,281.304 79.143,254.083 "/>
<polygon style="fill:#FFA834;" points="371.671,289.917 371.594,317.139 318.053,286.228 318.131,259.006 "/>
<polygon style="fill:#FF9911;" points="318.131,259.006 318.053,286.228 264.861,317.14 264.938,289.918 "/>
<polygon style="fill:#FFA834;" points="247.937,289.918 247.859,317.14 194.324,286.231 194.4,259.009 "/>
<polygon style="fill:#FF9911;" points="194.4,259.009 194.324,286.231 141.135,317.14 141.213,289.918 "/>
<polygon style="fill:#FFA834;" points="310.006,325.754 309.928,352.975 256.388,322.064 256.465,294.842 "/>
<polygon style="fill:#FF9911;" points="256.465,294.842 256.388,322.064 203.199,352.973 203.277,325.752 "/>
<polygon style="fill:#FFA834;" points="256.872,366.512 256.795,442.013 0,293.752 0.077,218.25 "/>
<polygon style="fill:#FFB657;" points="256.872,402.038 256.795,414.845 0,266.585 0.077,253.776 "/>
<polygon style="fill:#FF9911;" points="511.999,218.248 511.923,293.75 256.795,442.013 256.872,366.512 "/>
<polygon style="fill:#FFA834;" points="511.999,253.849 511.923,266.583 256.795,414.845 256.872,402.111 "/>
<path style="fill:#FEC377;" d="M255.204,69.987l256.795,148.261L256.872,366.512L0.077,218.25L255.204,69.987z M317.672,177.493
	l53.194-30.912l-53.542-30.912L264.13,146.58L317.672,177.493 M441.805,249.16l53.194-30.912l-53.541-30.911l-53.194,30.912
	L441.805,249.16 M194.345,249.161l53.193-30.912l-53.542-30.912l-53.193,30.912L194.345,249.161 M318.479,320.83l53.193-30.912
	l-53.541-30.911l-53.193,30.912L318.479,320.83 M255.602,141.656l53.194-30.912l-53.536-30.909l-53.194,30.912L255.602,141.656
	 M379.736,213.325l53.194-30.912l-53.536-30.909l-53.194,30.912L379.736,213.325 M256.01,213.325l53.188-30.909l-53.542-30.912
	l-53.188,30.909L256.01,213.325 M132.684,284.995l53.188-30.909l-53.542-30.912l-53.188,30.909L132.684,284.995 M132.276,213.325
	l53.193-30.912l-53.536-30.909l-53.193,30.912L132.276,213.325 M380.143,284.994l53.188-30.909l-53.541-30.911l-53.188,30.909
	L380.143,284.994 M256.817,356.663l53.188-30.909l-53.541-30.911l-53.188,30.909L256.817,356.663 M256.41,284.995l53.193-30.912
	l-53.536-30.909l-53.193,30.912L256.41,284.995 M193.94,177.49l53.188-30.909l-53.536-30.909l-53.188,30.909L193.94,177.49
	 M70.614,249.159l53.188-30.909l-53.536-30.909L17.078,218.25L70.614,249.159 M194.748,320.828l53.188-30.909L194.4,259.009
	l-53.188,30.909L194.748,320.828 M318.075,249.159l53.188-30.909l-53.536-30.909l-53.188,30.909L318.075,249.159"/>
<g>
	<polygon style="fill:#FED322;" points="256.787,160.764 203.181,191.915 203.006,224.403 257.137,255.554 310.567,224.402 
		310.742,191.914 	"/>
	<polygon style="fill:#FED322;" points="310.742,191.914 310.567,224.402 257.137,255.554 257.137,223.067 	"/>
</g>
<polygon style="fill:#FEDA44;" points="257.137,223.067 257.137,255.554 203.006,224.403 203.181,191.915 "/>
<polygon style="fill:#FFE577;" points="310.742,191.914 257.137,223.067 203.181,191.915 256.787,160.764 "/>
<g>
</g>
<g>
</g>
<g>
</g>
<g>
</g>
<g>
</g>
<g>
</g>
<g>
</g>
<g>
</g>
<g>
</g>
<g>
</g>
<g>
</g>
<g>
</g>
<g>
</g>
<g>
</g>
<g>
</g>
</svg>
