<?xml version="1.0" encoding="iso-8859-1"?>
<!-- Generator: Adobe Illustrator 19.0.0, SVG Export Plug-In . SVG Version: 6.00 Build 0)  -->
<svg version="1.1" id="Layer_1" xmlns="http://www.w3.org/2000/svg" xmlns:xlink="http://www.w3.org/1999/xlink" x="0px" y="0px"
	 viewBox="0 0 512.002 512.002" style="enable-background:new 0 0 512.002 512.002;" xml:space="preserve">
<path style="fill:#A66206;" d="M404.908,112.669v-0.002c0,0.145-0.008,0.29-0.01,0.437c-0.004,0.133-0.006,0.265-0.009,0.397
	c0.242-12.484-4.172-24.999-13.225-36.6c-0.828-19.547-14.167-38.969-40.003-53.885C298.505-7.673,212.607-7.671,159.801,23.017
	C134.368,37.797,121.253,57,120.425,76.366c-8.852,11.295-13.274,23.476-13.258,35.663c0-0.071-0.004-0.141-0.004-0.212v0.002
	c0,0,0-0.001,0-0.002l-0.069,24.467c-0.004,1.389,0.05,2.776,0.161,4.164c0.667,8.323,3.403,16.603,8.208,24.561
	c0.124,0.206,0.259,0.41,0.386,0.614l30.747,283.006h0.001c0.09,16.218,10.862,32.436,32.294,44.81
	c42.864,24.747,112.137,24.747,154.723-0.001c21.292-12.374,31.882-28.592,31.791-44.809h0.001l30.693-282.501
	c0.946-1.526,1.823-3.063,2.615-4.612c0.339-0.661,0.662-1.326,0.973-1.992c3.414-7.322,5.13-14.855,5.152-22.392l0.069-24.466
	C404.908,112.668,404.908,112.668,404.908,112.669z"/>
<path style="fill:#57565C;" d="M404.888,113.501c0.437-22.486-14.208-45.076-43.925-62.233
	c-58.329-33.676-152.59-33.676-210.54,0.001c-28.88,16.783-43.286,38.764-43.256,60.761c0-0.071-0.004-0.142-0.004-0.213
	l-0.069,24.467c-0.063,22.21,14.596,44.455,43.949,61.402c58.325,33.674,152.585,33.674,210.532-0.001
	c28.789-16.731,43.2-38.625,43.263-60.552l0.069-24.466C404.907,112.945,404.893,113.223,404.888,113.501z"/>
<path style="fill:#3E3D43;" d="M404.908,112.667l-0.069,24.467c-0.063,21.927-14.473,43.821-43.263,60.552
	c-57.947,33.675-152.207,33.675-210.532,0.001c-29.352-16.947-44.012-39.192-43.949-61.402l0.069-24.467
	c-0.063,22.21,14.596,44.455,43.949,61.402c58.325,33.674,152.585,33.674,210.532-0.001
	C390.434,156.488,404.845,134.594,404.908,112.667z"/>
<path style="fill:#2E2E30;" d="M339.583,63.691c46.442,26.813,46.687,70.288,0.543,97.103
	c-46.14,26.813-121.195,26.814-167.636,0.001c-46.445-26.815-46.689-70.289-0.55-97.103
	C218.083,36.877,293.138,36.877,339.583,63.691z"/>
<g style="enable-background:new    ;">
	<g>
		<path style="fill:#2E2E30;" d="M361.253,78.883l-0.084,29.361c0.045-15.696-10.315-31.417-31.059-43.394
			c-41.22-23.799-107.838-23.799-148.789,0.001c-20.345,11.823-30.529,27.296-30.573,42.792l0.084-29.361
			c0.044-15.496,10.229-30.969,30.573-42.792c40.953-23.799,107.569-23.8,148.789-0.001
			C350.938,47.466,361.298,63.187,361.253,78.883z"/>
		<g>
			<path style="fill:#010101;" d="M176.325,113.607l0.084-29.361c0.033-11.729,7.743-23.44,23.142-32.39l-0.084,29.361
				C184.066,90.167,176.358,101.878,176.325,113.607z"/>
			<polygon style="fill:#1D1D1F;" points="312.534,117.088 312.451,146.448 199.467,81.217 199.55,51.857 			"/>
			<path style="fill:#3E3D43;" d="M328.414,42.417c40.228,23.225,40.444,60.885,0.473,84.113s-104.986,23.226-145.215,0.001
				c-40.232-23.227-40.447-60.887-0.478-84.115C223.167,19.187,288.182,19.189,328.414,42.417z M199.918,117.091
				c31.199,18.012,81.617,18.012,112.617-0.003L199.55,51.857C168.551,69.872,168.715,99.077,199.918,117.091"/>
		</g>
	</g>
	<path style="fill:#3E3D43;" d="M391.706,78.97l-0.084,29.361c-0.056,19.982-13.189,39.933-39.422,55.178
		c-52.806,30.688-138.708,30.689-191.859,0.001c-26.747-15.443-40.105-35.714-40.049-55.953l0.084-29.361
		c-0.057,20.24,13.301,40.511,40.049,55.953c53.152,30.687,139.053,30.687,191.859-0.001
		C378.519,118.903,391.65,98.951,391.706,78.97z"/>
	<path style="fill:#57565C;" d="M351.66,23.017c53.152,30.687,53.431,80.445,0.626,111.132
		c-52.806,30.688-138.708,30.689-191.859,0.001c-53.155-30.689-53.431-80.445-0.625-111.132
		C212.607-7.67,298.505-7.673,351.66,23.017z M181.89,121.676c41.221,23.799,107.838,23.799,148.79-0.001
		c40.953-23.799,40.735-62.386-0.486-86.184c-41.22-23.799-107.838-23.799-148.789,0.001
		C140.452,59.29,140.67,97.877,181.89,121.676"/>
</g>
<path style="fill:#2E2E30;" d="M193.727,132.641c-0.355-0.205-0.753-0.392-1.193-0.557c-5.61-2.101-10.932-4.572-15.853-7.415
	c-4.925-2.843-9.209-5.918-12.855-9.161c-0.286-0.255-0.611-0.485-0.965-0.69c-2.72-1.57-7.219-1.657-10.05-0.013
	c-2.368,1.376-2.732,3.525-0.893,5.16c4.182,3.724,9.098,7.254,14.755,10.52c5.654,3.264,11.762,6.1,18.206,8.511
	c2.826,1.06,6.538,0.841,8.905-0.534C196.611,136.818,196.446,134.212,193.727,132.641"/>
<path style="fill:#ACABB1;" d="M176.902,41.211c-0.01,0.031-0.021,0.063-0.021,0.084c0.031-0.136,0.021-0.282-0.01-0.418
	c-0.01-0.031-0.01-0.052-0.031-0.063c-0.042-0.125-0.115-0.251-0.219-0.366c-0.125-0.136-0.272-0.261-0.46-0.366l-6.875-3.96
	c-0.993-0.575-2.612-0.575-3.605,0c-0.251,0.136-0.428,0.303-0.554,0.481c-0.115,0.178-0.178,0.366-0.178,0.554v0.136
	c0,0,0,0,0,0.01l-0.272,92.003c0.251,0.146,0.502,0.303,0.752,0.449c0.408,0.251,0.825,0.491,1.243,0.731
	c1.829,1.055,3.709,2.069,5.632,3.03c1.421,0.721,2.873,1.411,4.336,2.069l0.272-94.448
	C176.912,41.159,176.912,41.191,176.902,41.211z"/>
<g style="enable-background:new    ;">
	<path style="fill:#E0E0E2;" d="M165.69,38.213l-0.261,91.544c-0.251-0.146-0.502-0.303-0.752-0.449l0.272-92.003
		c0-0.01,0-0.01,0-0.01v-0.115c0,0.073,0.01,0.157,0.031,0.23s0.052,0.146,0.084,0.209c0.042,0.073,0.104,0.157,0.167,0.23
		c0,0.01,0.01,0.01,0.01,0.01c0.073,0.084,0.167,0.167,0.272,0.24C165.564,38.139,165.627,38.181,165.69,38.213z"/>
	<path style="fill:#D8D8DA;" d="M172.565,42.173l-0.261,91.345c-1.923-0.961-3.803-1.975-5.632-3.03
		c-0.418-0.24-0.836-0.481-1.243-0.731l0.261-91.544L172.565,42.173z"/>
	<path style="fill:#C6C5CB;" d="M176.912,41.138l-0.272,94.448c-1.463-0.658-2.915-1.348-4.336-2.069l0.261-91.345
		c0.993,0.575,2.612,0.575,3.605,0c0.251-0.146,0.428-0.303,0.554-0.481c0.094-0.136,0.146-0.272,0.178-0.418v-0.063
		C176.912,41.191,176.912,41.159,176.912,41.138z"/>
	<path style="fill:#ACABB1;" d="M176.157,40.086c0.997,0.576,1.002,1.511,0.012,2.087c-0.993,0.577-2.607,0.577-3.604,0.001
		l-6.869-3.966c-0.997-0.576-1.002-1.511-0.01-2.088c0.991-0.576,2.606-0.576,3.603,0L176.157,40.086z"/>
</g>
<g>
</g>
<g>
</g>
<g>
</g>
<g>
</g>
<g>
</g>
<g>
</g>
<g>
</g>
<g>
</g>
<g>
</g>
<g>
</g>
<g>
</g>
<g>
</g>
<g>
</g>
<g>
</g>
<g>
</g>
</svg>
